<svg xmlns="http://www.w3.org/2000/svg" viewBox="0 0 170.04 218.49"><defs><style>.cls-1{fill:#fff;opacity:0.34;}.cls-1,.cls-3,.cls-4,.cls-5,.cls-6,.cls-7,.cls-8{fill-rule:evenodd;}.cls-2,.cls-4{fill:#f9f7f2;stroke:#044d89;stroke-miterlimit:10;}.cls-2{stroke-width:0.75px;}.cls-3{fill:#70c5fe;}.cls-4{stroke-width:0.25px;}.cls-5{fill:#1758d9;}.cls-6{fill:#1992fc;}.cls-7,.cls-9{fill:#1672f1;}.cls-8{fill:#01bafb;}</style></defs><g id="Layer_1" data-name="Layer 1"><path class="cls-1" d="M165.88,77.14a13.64,13.64,0,0,0-.53-3,7,7,0,0,0-.3-.84c-.09-.27-.19-.55-.31-.82a13.62,13.62,0,0,0-1.54-2.67,6,6,0,0,0-.4-.48,1.64,1.64,0,0,0,.14-.22,15.13,15.13,0,0,0,.78-1.56,7.73,7.73,0,0,0,.34-1,7.93,7.93,0,0,0,.37-1,14.23,14.23,0,0,0,.61-3.47,8.47,8.47,0,0,0,0-1,8.81,8.81,0,0,0,0-1,15.3,15.3,0,0,0-.2-1.76,13.56,13.56,0,0,0-.41-1.67,6.27,6.27,0,0,0-.37-1,7.24,7.24,0,0,0-.34-1,13.35,13.35,0,0,0-.78-1.56,14,14,0,0,0-1-1.45,8.57,8.57,0,0,0-.68-.79,8.12,8.12,0,0,0-.65-.8,15.83,15.83,0,0,0-1.26-1.2,16,16,0,0,0-1.41-1,9.12,9.12,0,0,0-.91-.51,6.82,6.82,0,0,0-.91-.54,15,15,0,0,0-1.59-.69,13.58,13.58,0,0,0-1.65-.49h0a24.42,24.42,0,0,0,.24-3.3,23.57,23.57,0,0,0-.26-3.45,7.73,7.73,0,0,0-.82-2.54,7.93,7.93,0,0,0-.56-2.6A22.54,22.54,0,0,0,150,30.57,23.36,23.36,0,0,0,148,27.7a8.08,8.08,0,0,0-2-1.78,8,8,0,0,0-1.79-2A22.38,22.38,0,0,0,141.42,22l-.57-.32a24,24,0,0,0-2.57-1.2,8,8,0,0,0-2.6-.56,8.32,8.32,0,0,0-2.54-.82l-.59-.06a6.25,6.25,0,0,0-.23-.77,7.8,7.8,0,0,0-.42-1.46A13.86,13.86,0,0,0,131,15,13.16,13.16,0,0,0,130,13.44a7.91,7.91,0,0,0-1-1.11,9,9,0,0,0-1.09-1,14.75,14.75,0,0,0-1.61-1.1l-.33-.18a12.79,12.79,0,0,0-1.46-.68A8.42,8.42,0,0,0,123,8.91a8.3,8.3,0,0,0-1.49-.36,13.51,13.51,0,0,0-3.88,0,7.77,7.77,0,0,0-1.18.27,7.13,7.13,0,0,0-.89-.93,8.4,8.4,0,0,0-1-1,13,13,0,0,0-1.52-1,11.76,11.76,0,0,0-1.64-.79,7.84,7.84,0,0,0-1.31-.39,7.72,7.72,0,0,0-1.38-.33,13.62,13.62,0,0,0-1.8-.13,13.77,13.77,0,0,0-1.81.13,7.82,7.82,0,0,0-1.37.33,7.14,7.14,0,0,0-1.32.4,11,11,0,0,0-1.66.8,12.27,12.27,0,0,0-1.3.87l-.25-.18c-.24-.15-.49-.29-.74-.42s-.47-.29-.71-.42a13.34,13.34,0,0,0-1.41-.61,13.1,13.1,0,0,0-1.51-.45A8,8,0,0,0,94,4.57a7.88,7.88,0,0,0-.87-.16,12.63,12.63,0,0,0-3,0,7.88,7.88,0,0,0-.87.16,7.39,7.39,0,0,0-.82.14,12.4,12.4,0,0,0-1.49.44,13.12,13.12,0,0,0-1.43.62c-.25.13-.49.27-.73.42a6.71,6.71,0,0,0-.68.4,6.33,6.33,0,0,0-.63.44l-.33.26c-.2.17-.38.35-.57.54a29.68,29.68,0,0,0-40.46,10h-.23A24.4,24.4,0,0,0,17.46,42.19a22.61,22.61,0,0,0,.2,3.07,29.67,29.67,0,0,0-7.17,39.2h0l.1.16.2.3a8.66,8.66,0,0,0,1.11,1.3,24.09,24.09,0,0,0-.11,21.59c.07.15.15.29.22.44a24.74,24.74,0,0,0,8.53,9.41,28.63,28.63,0,0,0-.36,4.53A29.86,29.86,0,0,0,50,152a29,29,0,0,0,7-.85A10.84,10.84,0,0,0,59.44,154a9,9,0,0,0,.85.64,24.18,24.18,0,0,0,27.9-1.17l.09.08.09.06a22.85,22.85,0,0,0,2.16,1.45,26.09,26.09,0,0,0,3.37,1.62,7.86,7.86,0,0,0,2.8.57,8,8,0,0,0,2.71.91,24.92,24.92,0,0,0,7.45,0,8,8,0,0,0,2.71-.91,7.86,7.86,0,0,0,2.8-.57,24.16,24.16,0,0,0,3.36-1.62,26,26,0,0,0,3.1-2.1,8,8,0,0,0,1.88-2.15,8,8,0,0,0,2.15-1.89,25.73,25.73,0,0,0,2.1-3.08,26.61,26.61,0,0,0,1.62-3.36,8.25,8.25,0,0,0,.53-2.26,5.21,5.21,0,0,0,0-.55,7.82,7.82,0,0,0,.92-2.72,25.73,25.73,0,0,0,.27-3.71c0-.24,0-.47,0-.71l.15,0a7.41,7.41,0,0,0,1,.07,9,9,0,0,0,1.16-.08,20.71,20.71,0,0,0,2.81-.62,19.58,19.58,0,0,0,2.67-1A8.24,8.24,0,0,0,138,129.7a8,8,0,0,0,1.9-1.12,19.52,19.52,0,0,0,2.13-1.94,21.14,21.14,0,0,0,1.81-2.22,8.21,8.21,0,0,0,1-2,7.73,7.73,0,0,0,1.1-1.92,19.8,19.8,0,0,0,.86-2.74,18.14,18.14,0,0,0,.46-2.83,7.94,7.94,0,0,0-.07-1.89,7.86,7.86,0,0,0,1.92-.49,18.23,18.23,0,0,0,2.4-1.16,18,18,0,0,0,2.17-1.48,7.54,7.54,0,0,0,1.42-1.46c.1-.07.19-.16.29-.24s.34-.28.5-.44a6.78,6.78,0,0,0,.67-.74,19,19,0,0,0,1.48-2.18,17.39,17.39,0,0,0,1.15-2.38,7.8,7.8,0,0,0,.51-2,7.9,7.9,0,0,0,.55-2,18.37,18.37,0,0,0,0-5.27,8,8,0,0,0-.55-2,8.14,8.14,0,0,0-.35-1.5,4.05,4.05,0,0,0,.35-.21,13.87,13.87,0,0,0,2.36-2,7.68,7.68,0,0,0,.59-.69,7.22,7.22,0,0,0,.56-.68,13.92,13.92,0,0,0,1.54-2.67c.12-.27.22-.55.31-.82a7,7,0,0,0,.3-.84,13.64,13.64,0,0,0,.53-3,39.61,39.61,0,0,0,0-1.78Z"/><path class="cls-1" d="M161.83,77.48a12.7,12.7,0,0,0-.51-2.88,7.58,7.58,0,0,0-.28-.8,8.21,8.21,0,0,0-.29-.78,13.45,13.45,0,0,0-1.46-2.52c-.12-.16-.25-.31-.38-.46l.13-.2a15.88,15.88,0,0,0,.74-1.49,6.83,6.83,0,0,0,.32-.93,7.27,7.27,0,0,0,.35-.92,13.35,13.35,0,0,0,.39-1.6,13.71,13.71,0,0,0,.19-1.68,7.49,7.49,0,0,0,0-.95,8,8,0,0,0,0-1,13.77,13.77,0,0,0-.19-1.67,14.57,14.57,0,0,0-.39-1.58,6,6,0,0,0-.35-.92,6,6,0,0,0-.32-.93,12.77,12.77,0,0,0-.74-1.48,13.69,13.69,0,0,0-.91-1.38,7.55,7.55,0,0,0-.64-.74,8.94,8.94,0,0,0-.62-.76,13.27,13.27,0,0,0-2.53-2.12,7.25,7.25,0,0,0-.86-.48,8.18,8.18,0,0,0-.86-.52c-.49-.24-1-.46-1.5-.65a12.27,12.27,0,0,0-1.57-.46h0a21.73,21.73,0,0,0,.23-3.12,23.84,23.84,0,0,0-.24-3.26,7.81,7.81,0,0,0-.78-2.42,7.7,7.7,0,0,0-.53-2.46,22.38,22.38,0,0,0-1.43-3,22.84,22.84,0,0,0-1.85-2.72A7.67,7.67,0,0,0,143.05,29a7.65,7.65,0,0,0-1.69-1.87,21.73,21.73,0,0,0-2.7-1.83l-.54-.31a22.28,22.28,0,0,0-2.43-1.13,7.45,7.45,0,0,0-2.47-.53,7.52,7.52,0,0,0-2.4-.78l-.56-.06c-.06-.25-.13-.49-.21-.73a7.77,7.77,0,0,0-.41-1.38,13,13,0,0,0-.81-1.68,12.17,12.17,0,0,0-1-1.51,7.12,7.12,0,0,0-1-1,8,8,0,0,0-1-1,11.51,11.51,0,0,0-1.53-1l-.31-.17a12.29,12.29,0,0,0-1.38-.64,7.53,7.53,0,0,0-1.36-.4,7.36,7.36,0,0,0-1.42-.34,12.42,12.42,0,0,0-1.83-.14,12.67,12.67,0,0,0-1.84.14,7.24,7.24,0,0,0-1.12.25,8.64,8.64,0,0,0-.83-.88,7.66,7.66,0,0,0-1-.91,11.55,11.55,0,0,0-1.43-1,12.38,12.38,0,0,0-1.56-.75A8,8,0,0,0,109,8.89a8,8,0,0,0-1.3-.31,12.24,12.24,0,0,0-3.42,0,8,8,0,0,0-1.3.31,7.18,7.18,0,0,0-1.25.38,10.69,10.69,0,0,0-1.57.75,11.51,11.51,0,0,0-1.23.83l-.24-.17c-.23-.14-.46-.28-.7-.4a7.51,7.51,0,0,0-.68-.39,11.91,11.91,0,0,0-1.33-.58,10.22,10.22,0,0,0-1.43-.43,7,7,0,0,0-.78-.13,5.77,5.77,0,0,0-.83-.15,11.4,11.4,0,0,0-1.42-.09A11.56,11.56,0,0,0,90,8.6a5.77,5.77,0,0,0-.83.15,6.88,6.88,0,0,0-.77.13A10.06,10.06,0,0,0,87,9.3a11.87,11.87,0,0,0-1.36.59,5.77,5.77,0,0,0-.68.4,6,6,0,0,0-.65.37,5.74,5.74,0,0,0-.6.42l-.31.24c-.19.16-.36.34-.54.51a28.09,28.09,0,0,0-38.31,9.46h-.23A23.12,23.12,0,0,0,21.26,44.37a23.57,23.57,0,0,0,.19,2.91,28.12,28.12,0,0,0-6.79,37.13h0l.1.15c.06.09.12.19.19.28A8.94,8.94,0,0,0,16,86.08a22.84,22.84,0,0,0-.11,20.44l.22.41a23.32,23.32,0,0,0,8.07,8.92,26.78,26.78,0,0,0-.34,4.29,28.23,28.23,0,0,0,34.9,27.44A10.19,10.19,0,0,0,61,150.29a7.7,7.7,0,0,0,.81.6,22.86,22.86,0,0,0,12.42,3.68,23.12,23.12,0,0,0,14-4.78l.09.07.08.06a20.09,20.09,0,0,0,2,1.37,23.3,23.3,0,0,0,3.18,1.54,7.56,7.56,0,0,0,2.66.54,7.43,7.43,0,0,0,2.57.86,24,24,0,0,0,7.05,0,7.5,7.5,0,0,0,2.57-.86,7.55,7.55,0,0,0,2.65-.54,23.86,23.86,0,0,0,3.18-1.53,23.3,23.3,0,0,0,2.93-2,7.65,7.65,0,0,0,1.79-2,7.61,7.61,0,0,0,2-1.78,25.16,25.16,0,0,0,2-2.93,23.88,23.88,0,0,0,1.54-3.18,8.11,8.11,0,0,0,.5-2.14c0-.17,0-.35,0-.52a7.74,7.74,0,0,0,.87-2.57,24.53,24.53,0,0,0,.26-3.52c0-.22,0-.45,0-.67l.15,0a6.5,6.5,0,0,0,1,.07,8.14,8.14,0,0,0,1.1-.08,18.62,18.62,0,0,0,5.18-1.55,7.79,7.79,0,0,0,1.76-1.13,8,8,0,0,0,1.8-1.06,19.5,19.5,0,0,0,2-1.84,20.1,20.1,0,0,0,1.71-2.1,7.87,7.87,0,0,0,.94-1.85,7.82,7.82,0,0,0,1-1.83,18.42,18.42,0,0,0,1.25-5.27,7.63,7.63,0,0,0-.07-1.79,8,8,0,0,0,1.82-.46,19,19,0,0,0,2.27-1.1,16.4,16.4,0,0,0,2.07-1.41,7.55,7.55,0,0,0,1.34-1.37l.27-.24c.16-.13.32-.26.48-.41a8.47,8.47,0,0,0,.63-.7,17.78,17.78,0,0,0,1.4-2.06,16.79,16.79,0,0,0,1.09-2.26,7.36,7.36,0,0,0,.48-1.87,7.22,7.22,0,0,0,.52-1.86,17.29,17.29,0,0,0,.19-2.49,17.53,17.53,0,0,0-.19-2.5,7.15,7.15,0,0,0-.52-1.85,8,8,0,0,0-.33-1.43,3.54,3.54,0,0,0,.33-.19,13.81,13.81,0,0,0,2.24-1.87,7,7,0,0,0,.56-.66c.18-.2.36-.41.53-.64a13.45,13.45,0,0,0,1.46-2.52,75,75,0,0,0,.57-1.58,12.89,12.89,0,0,0,.51-2.88,35.28,35.28,0,0,0,0-1.68Z"/><path class="cls-2" d="M83.59,18.57a21.92,21.92,0,0,0-36.45,7.05.29.29,0,0,0,0,.08,1.28,1.28,0,0,1-1.31.74h0a16.32,16.32,0,0,0-4-.51,16.54,16.54,0,0,0-16.51,16.5,16.21,16.21,0,0,0,1,5.63h0s.65,1.06-.7,1.83l0,0A22,22,0,0,0,13.69,69.39,21.71,21.71,0,0,0,17,80.88l0,0v0c.19.27,1,1.22,2.89-.06a2.57,2.57,0,0,1,.39-.23,19.21,19.21,0,0,1,9.88-2.73,2.86,2.86,0,1,1,0,5.72,13.62,13.62,0,0,0-8.87,3.29,16.45,16.45,0,0,0,7.59,26.91h0a1,1,0,0,1,.66,1.4s0,.07,0,.11a21.74,21.74,0,0,0-1.55,8,22,22,0,0,0,22,22,21.77,21.77,0,0,0,9.16-2h0a19,19,0,0,0,10.48-16.76,2.86,2.86,0,0,1,5.72,0,24.82,24.82,0,0,1-10.91,20.54h0s-1.17.92.36,2.22a16.34,16.34,0,0,0,19.08-1A4.75,4.75,0,0,0,85.23,146V24A9.24,9.24,0,0,0,83.59,18.57ZM34.23,72.84a13.43,13.43,0,0,1,2.28-5.74h0A2,2,0,0,0,36,64.26h0a13.43,13.43,0,0,1,8.47-23.76h.18a2.81,2.81,0,0,0,1.22-.32,1.42,1.42,0,0,0,.54-1A16.87,16.87,0,1,1,62.54,61.08a2.86,2.86,0,1,1,0-5.72A11.15,11.15,0,1,0,51.39,44.21a2.86,2.86,0,0,1-2.86,2.86,2.81,2.81,0,0,1-1.64-.52,7.74,7.74,0,1,0-2.21,15.16l.19,0a2.06,2.06,0,0,1,.26,0,1.55,1.55,0,0,1,.31.07l.22.07L46,62l.2.11.25.18.19.16a2,2,0,0,1,.21.2l.16.21.16.24.13.23c0,.1.08.19.11.29a.94.94,0,0,1,.06.15s0,.07,0,.1a2.74,2.74,0,0,1,0,.28c0,.11,0,.21,0,.31s0,.06,0,.09a1,1,0,0,1,0,.16,1.63,1.63,0,0,1,0,.31,2.38,2.38,0,0,1-.05.26l-.09.27c0,.09-.07.17-.11.26a1.71,1.71,0,0,1-.13.23,1.88,1.88,0,0,1-.16.23l-.17.21a1.8,1.8,0,0,1-.2.19l-.21.18-.24.15a1.71,1.71,0,0,1-.23.13l-.29.11a.94.94,0,0,1-.15.06,7.87,7.87,0,0,0-2.53,1.25A7.76,7.76,0,1,0,52.2,81a2.86,2.86,0,0,1,3.42,4.59,13.37,13.37,0,0,1-8,2.67,14.65,14.65,0,0,1-2-.14A13.49,13.49,0,0,1,34.23,72.84Zm45.33,16.4a13.61,13.61,0,0,1-3.32,3.64h0a2.28,2.28,0,0,0-.61,2.78h0A13.5,13.5,0,0,1,63.2,114.3a13.92,13.92,0,0,1-2.13-.18h0c-2.62-.68-3.08,1.52-3.08,1.52h0a13.45,13.45,0,0,1-9.8,9.34,3.05,3.05,0,0,1-.66.08,2.86,2.86,0,0,1-.66-5.65,7.76,7.76,0,1,0-3.56-15.1,7.61,7.61,0,0,0-2.57,1.13,2.86,2.86,0,1,1-3.22-4.73,13.45,13.45,0,0,1,18.9,3.87,7.75,7.75,0,1,0,11.84-9.64,2.83,2.83,0,0,1,.4-4.6,2.81,2.81,0,0,1,1.23-.65,7.76,7.76,0,0,0,5.77-9.32,7.76,7.76,0,0,0-11.9-4.65A2.86,2.86,0,1,1,60.54,71a13.48,13.48,0,0,1,19,18.25Z"/><path class="cls-3" d="M118.17,44.84a12,12,0,0,0,.51,1.89l-2.62,1.51a16.49,16.49,0,0,0,1,2.08,17.31,17.31,0,0,0,1.3,1.91L121,50.72a13.83,13.83,0,0,0,1.38,1.38l-1.51,2.61a14.25,14.25,0,0,0,1.91,1.3l.36.2a14.91,14.91,0,0,0,1.72.81l1.51-2.62a12.14,12.14,0,0,0,1.88.51v3a16.11,16.11,0,0,0,2.31.17,15.86,15.86,0,0,0,2.3-.17v-3a12,12,0,0,0,1.89-.51L136.24,57a15.73,15.73,0,0,0,1.72-.81l.36-.2a14.92,14.92,0,0,0,1.91-1.3l-1.51-2.61a15,15,0,0,0,1.38-1.38l2.61,1.51a14.92,14.92,0,0,0,1.3-1.91,16.57,16.57,0,0,0,1-2.08l-2.62-1.51a12,12,0,0,0,.51-1.89h3a15.86,15.86,0,0,0,.17-2.3,16.11,16.11,0,0,0-.17-2.31h-3a12.14,12.14,0,0,0-.51-1.88L145,36.84a15.92,15.92,0,0,0-1-2.08,14.25,14.25,0,0,0-1.3-1.91l-2.61,1.51A15,15,0,0,0,138.72,33l1.51-2.62a16,16,0,0,0-1.91-1.29l-.36-.21a17.73,17.73,0,0,0-1.72-.8l-1.51,2.61a13.12,13.12,0,0,0-1.89-.5v-3a15.86,15.86,0,0,0-2.3-.17,16.11,16.11,0,0,0-2.31.17v3a13.34,13.34,0,0,0-1.88.5l-1.51-2.61a16.69,16.69,0,0,0-1.72.8l-.36.21a15.2,15.2,0,0,0-1.91,1.29L122.36,33A13.83,13.83,0,0,0,121,34.36l-2.62-1.51a16.42,16.42,0,0,0-1.3,1.91,15.85,15.85,0,0,0-1,2.08l2.61,1.51a13.34,13.34,0,0,0-.5,1.88h-3a16.11,16.11,0,0,0-.17,2.31,15.86,15.86,0,0,0,.17,2.3ZM138,39.44h0a3.1,3.1,0,0,1,0,6.2h0a3.1,3.1,0,1,1,0-6.2ZM130.54,32a3.1,3.1,0,1,1-3.1,3.1A3.1,3.1,0,0,1,130.54,32Zm2.07,10.52a2.07,2.07,0,1,1-2.07-2.07A2.07,2.07,0,0,1,132.61,42.54Zm-2.07,4.32a3.1,3.1,0,1,1-3.1,3.1A3.1,3.1,0,0,1,130.54,46.86Zm-7.42-7.42a3.1,3.1,0,1,1-3.1,3.1A3.1,3.1,0,0,1,123.12,39.44Z"/><path class="cls-4" d="M143.12,69.71a13.59,13.59,0,0,0-1.63-2.23L138.82,69l-.44-.4c-.28-.25-.58-.47-.88-.69A10.56,10.56,0,0,0,135,66.67l-.42-.13V63.46a13.23,13.23,0,0,0-5.51,0v3.08l-.43.13a10.49,10.49,0,0,0-2.53,1.26,9.9,9.9,0,0,0-.88.69c-.15.13-.3.26-.44.4l-2.67-1.54a13,13,0,0,0-1.63,2.23,13.47,13.47,0,0,0-1.12,2.53L122,73.78a10.36,10.36,0,0,0,0,5l-2.66,1.54a13.47,13.47,0,0,0,1.12,2.53A13.12,13.12,0,0,0,122.08,85l2.67-1.54.44.4a9.8,9.8,0,0,0,.88.68,10.14,10.14,0,0,0,2.53,1.26L129,86v3.08a13.23,13.23,0,0,0,5.51,0V86l.42-.13a10.21,10.21,0,0,0,2.54-1.26c.3-.21.6-.44.88-.68l.44-.4L141.49,85a13.68,13.68,0,0,0,1.63-2.24,13.47,13.47,0,0,0,1.12-2.53l-2.67-1.54a10,10,0,0,0,0-5l2.67-1.54A13.47,13.47,0,0,0,143.12,69.71Zm-6.07,2.48a.89.89,0,0,1,.45-.12.91.91,0,0,1,.77.44,1.07,1.07,0,0,1,.11.33,1,1,0,0,1,0,.24.9.9,0,0,1-.44.65.88.88,0,0,1-.44.12.9.9,0,0,1-.78-.45A.89.89,0,0,1,137.05,72.19Zm-5.27-3.42a.89.89,0,1,1-.89.89A.89.89,0,0,1,131.78,68.77ZM128.34,70a.65.65,0,0,1,.26-.06.54.54,0,0,1,.27,1,.54.54,0,0,1-.27.07.53.53,0,0,1-.47-.28A.55.55,0,0,1,128.34,70Zm-3.63,6.38a.54.54,0,0,1,.22-.73.48.48,0,0,1,.26-.07.54.54,0,0,1,.26,1,.48.48,0,0,1-.26.07A.55.55,0,0,1,124.71,76.38Zm1.81,4a.91.91,0,0,1-.45.11.9.9,0,0,1-.77-.44.76.76,0,0,1-.11-.33.9.9,0,0,1,.88-1,.9.9,0,0,1,.45,1.67Zm.32-6.93a.87.87,0,0,1-.77.45.88.88,0,0,1-.44-.12.87.87,0,0,1-.44-.65,1,1,0,0,1,0-.24.86.86,0,0,1,.11-.33.9.9,0,0,1,.77-.44.92.92,0,0,1,.45.12A.88.88,0,0,1,126.84,73.4Zm1.79,9h0a.54.54,0,0,1-.71-.22.54.54,0,1,1,.74.21Zm3.15,1.37a.89.89,0,1,1,.89-.89A.89.89,0,0,1,131.78,83.74Zm0-4.44a3,3,0,1,1,3.05-3A3,3,0,0,1,131.78,79.3Zm3.44,3.21a.48.48,0,0,1-.26.07.53.53,0,0,1-.47-.28.54.54,0,0,1,.21-.74.59.59,0,0,1,.26-.07.55.55,0,0,1,.26,1Zm.24-11.42a.52.52,0,0,1-.5,0,.49.49,0,0,1-.23-.22.54.54,0,0,1,.21-.74h0a.54.54,0,0,1,.5,1Zm2.92,8.58a.92.92,0,0,1-.11.33.91.91,0,0,1-.77.44.88.88,0,0,1-.45-.11.89.89,0,0,1,.45-1.66.78.78,0,0,1,.44.11.91.91,0,0,1,.44.66A.88.88,0,0,1,138.38,79.67Zm.26-2.8a.59.59,0,0,1-.26.07.56.56,0,0,1-.48-.29.53.53,0,0,1,.22-.73.48.48,0,0,1,.26-.07.53.53,0,0,1,.47.28A.54.54,0,0,1,138.64,76.87Z"/><path class="cls-4" d="M138,113.35l2.14-.63a11.11,11.11,0,0,0-.37-1.67,12.15,12.15,0,0,0-.61-1.59l-2.13.64a9.61,9.61,0,0,0-.75-1.23l1.53-1.62a11.28,11.28,0,0,0-1.15-1.25,11.13,11.13,0,0,0-1.32-1.08L134,106.31l-.21.23a9.13,9.13,0,0,0-1.27-.68l.52-2.17a12.39,12.39,0,0,0-1.63-.52,12.23,12.23,0,0,0-1.68-.27l-.51,2.17h-.46a8,8,0,0,0-1,0l-.64-2.13a12.32,12.32,0,0,0-1.66.36,11.15,11.15,0,0,0-1.59.61l.63,2.13a9.12,9.12,0,0,0-1,.6l-.22.15-1.62-1.52a11.29,11.29,0,0,0-1.26,1.15,10.3,10.3,0,0,0-1.07,1.32l1.61,1.53a10.86,10.86,0,0,0-.68,1.26l-2.17-.52a12.85,12.85,0,0,0-.51,1.63,10.88,10.88,0,0,0-.27,1.68l2.16.52a9.8,9.8,0,0,0,0,1.43l-2.13.64a11,11,0,0,0,.37,1.66,10.54,10.54,0,0,0,.6,1.6l2.14-.64a9.61,9.61,0,0,0,.75,1.23l-1.53,1.61a12.34,12.34,0,0,0,1.15,1.26,11.13,11.13,0,0,0,1.32,1.08l1.32-1.4.21-.22a9.65,9.65,0,0,0,1.27.68l-.52,2.17a10.9,10.9,0,0,0,1.62.51,10,10,0,0,0,1.68.27l.52-2.16h.46c.32,0,.65,0,1,0l.64,2.13a12.32,12.32,0,0,0,1.66-.36,12.15,12.15,0,0,0,1.59-.61l-.64-2.13a9.26,9.26,0,0,0,1-.6l.22-.16,1.62,1.53a10.39,10.39,0,0,0,1.25-1.15,11.13,11.13,0,0,0,1.08-1.32l-1.62-1.53a10.27,10.27,0,0,0,.69-1.26l2.16.51a11.26,11.26,0,0,0,.79-3.3l-2.17-.52A8.72,8.72,0,0,0,138,113.35Zm-13.81,4.74a2.48,2.48,0,0,1-.65.09,2.28,2.28,0,0,1-.66-4.47,2.16,2.16,0,0,1,.66-.1,2.29,2.29,0,0,1,.65,4.48Zm.83-8.34a2.3,2.3,0,1,1,2.85,1.53A2.29,2.29,0,0,1,125,109.75Zm2.29,5a1.53,1.53,0,0,1,1-1.9,1.67,1.67,0,0,1,.44-.06,1.53,1.53,0,0,1,.43,3,1.59,1.59,0,0,1-.43.06A1.54,1.54,0,0,1,127.29,114.77Zm3.69,7a2.29,2.29,0,0,1-2.85-1.53,2.3,2.3,0,0,1,.63-2.32,2.17,2.17,0,0,1,.91-.52,2.28,2.28,0,1,1,1.31,4.37Zm3.67-6.8a2.38,2.38,0,0,1-.65.1,2.29,2.29,0,0,1-.65-4.48,2.05,2.05,0,0,1,.65-.1,2.29,2.29,0,0,1,.65,4.48Z"/><path class="cls-4" d="M96.11,27.41a9.32,9.32,0,0,0-.33,1.86l2,.59a6.87,6.87,0,0,0,.81,3.29L97.1,34.61a8.61,8.61,0,0,0,1.16,1.5,8.77,8.77,0,0,0,1.45,1.22l.68-.65.84-.81.24.13a6.87,6.87,0,0,0,2.17.73,6,6,0,0,0,.85.08l.24,1,.26,1.07a7.72,7.72,0,0,0,.82-.06,9.83,9.83,0,0,0,1.06-.19,10.45,10.45,0,0,0,1.12-.36,5.51,5.51,0,0,0,.66-.29l-.5-2.05a7.06,7.06,0,0,0,.92-.62,7.16,7.16,0,0,0,1.52-1.73l2,.59a8.81,8.81,0,0,0,1-3.62l-2-.59a6.51,6.51,0,0,0-.2-1.69,7,7,0,0,0-.61-1.6l1.53-1.46a9.2,9.2,0,0,0-1.17-1.5,8.77,8.77,0,0,0-1.45-1.22l-.67.65-.85.81L108,23.8a7,7,0,0,0-2.18-.73A6,6,0,0,0,105,23l-.24-1-.27-1.08-.82.06a8.21,8.21,0,0,0-1.06.2,8.42,8.42,0,0,0-1.11.35c-.23.09-.45.18-.67.29l.5,2.05a5.68,5.68,0,0,0-.91.63,6.78,6.78,0,0,0-1.53,1.72l-2-.59A9.15,9.15,0,0,0,96.11,27.41ZM108,33.5l-.05,0a.39.39,0,0,1-.48-.06.39.39,0,0,1,0-.53.38.38,0,0,1,.45,0l.07.06A.38.38,0,0,1,108,33.5Zm.84-4.86a.37.37,0,0,1,.19-.09.35.35,0,0,1,.34.11.37.37,0,0,1,0,.52.36.36,0,0,1-.32.1.45.45,0,0,1-.21-.12A.37.37,0,0,1,108.88,28.64Zm.19,1.91.17,0a.61.61,0,0,1-.17,1.2.47.47,0,0,1-.17,0,.61.61,0,0,1,.17-1.19Zm-1.51-4.22a.63.63,0,0,1,.43-.17.61.61,0,0,1,.42,1.05.63.63,0,0,1-.42.17.59.59,0,0,1-.44-.19A.6.6,0,0,1,107.56,26.33Zm-3.92,8.14v0a.37.37,0,0,1-.52,0,.38.38,0,0,1,0-.53.35.35,0,0,1,.51,0h0A.37.37,0,0,1,103.64,34.47Zm2.31.41-.14,0a.62.62,0,0,1-.6-.47.61.61,0,0,1,.45-.73.39.39,0,0,1,.15,0,.61.61,0,0,1,.14,1.2Zm-.14-9.55v0a.39.39,0,0,1,.53,0,.36.36,0,0,1,0,.52.36.36,0,0,1-.51,0h0A.37.37,0,0,1,105.81,25.33Zm-2.31-.41.14,0a.61.61,0,0,1,.15,1.21h-.15a.61.61,0,0,1-.14-1.2Zm.14,3.2a2,2,0,0,1,.59-.24,2.07,2.07,0,0,1,.5-.06,2,2,0,0,1,1.08.3,2.08,2.08,0,0,1,0,3.56,2.38,2.38,0,0,1-.59.25,2.05,2.05,0,0,1-.49.06,2.09,2.09,0,0,1-1.09-3.87Zm-3.07,3a.38.38,0,0,1-.18.09.36.36,0,0,1-.35-.11.37.37,0,1,1,.53,0Zm.84-4.86.06,0a.37.37,0,0,1,.47.07.37.37,0,0,1-.47.56l-.08-.06A.38.38,0,0,1,101.41,26.3Zm.06,6.12a.59.59,0,0,1,.44.19.61.61,0,0,1,0,.86.63.63,0,0,1-.42.17.59.59,0,0,1-.44-.19.6.6,0,0,1,0-.86A.63.63,0,0,1,101.47,32.42Zm-1.67-4a.62.62,0,0,1,.59-.44l.17,0a.61.61,0,0,1-.17,1.19l-.17,0A.61.61,0,0,1,99.8,28.47Z"/><path class="cls-5" d="M146.91,56.45,145.65,55a4.94,4.94,0,0,0-.6.45,5.44,5.44,0,0,0-.55.52l1.26,1.5a4.19,4.19,0,0,0-.39.45l-1.69-1a6.9,6.9,0,0,0-.42.63,5.3,5.3,0,0,0-.33.68l1.68,1c-.07.18-.14.37-.2.56l-1.92-.34c-.07.24-.13.48-.18.73a6.77,6.77,0,0,0-.08.76l1.92.33c0,.1,0,.2,0,.3s0,.2,0,.3l-1.92.34a6.36,6.36,0,0,0,.08.75c.05.25.11.5.18.74l1.92-.34c.06.19.13.38.2.56l-1.68,1a4.73,4.73,0,0,0,.33.68,6.9,6.9,0,0,0,.42.63l1.69-1a4.31,4.31,0,0,0,.39.46l-1.26,1.5a6.85,6.85,0,0,0,.55.52c.19.16.4.31.6.45l1.26-1.5a5.39,5.39,0,0,0,.52.3l-.67,1.83a5.37,5.37,0,0,0,.69.31,6.09,6.09,0,0,0,.73.21l.66-1.83.59.1v2a5.73,5.73,0,0,0,1.51,0v-2l.59-.1.67,1.83a6.52,6.52,0,0,0,.72-.21,6.21,6.21,0,0,0,.7-.31L153,66.91a5.24,5.24,0,0,0,.51-.3l1.26,1.5c.21-.14.41-.29.61-.45a6.69,6.69,0,0,0,.54-.52l-1.25-1.5a5.81,5.81,0,0,0,.38-.46l1.69,1a6.9,6.9,0,0,0,.42-.63,6.16,6.16,0,0,0,.34-.68l-1.69-1a5.31,5.31,0,0,0,.2-.56l1.92.34a4.7,4.7,0,0,0,.18-.74,6.39,6.39,0,0,0,.09-.75l-1.93-.34c0-.1,0-.2,0-.3s0-.2,0-.3l1.93-.33a6.83,6.83,0,0,0-.09-.76,4.58,4.58,0,0,0-.18-.73l-1.92.34a5.31,5.31,0,0,0-.2-.56l1.69-1a7.18,7.18,0,0,0-.34-.68,6.9,6.9,0,0,0-.42-.63l-1.69,1c-.12-.16-.25-.31-.38-.46l1.25-1.49a5.33,5.33,0,0,0-.54-.52,5,5,0,0,0-.61-.45l-1.26,1.49-.51-.3.67-1.83c-.23-.11-.46-.21-.7-.3a6.59,6.59,0,0,0-.72-.22l-.67,1.84a3.83,3.83,0,0,0-.59-.1v-2a7.15,7.15,0,0,0-1.51,0v2a4,4,0,0,0-.59.1l-.66-1.84a6.14,6.14,0,0,0-.73.22,7.17,7.17,0,0,0-.69.3l.67,1.83Zm3.28,1.43a3.65,3.65,0,1,1-3.66,3.65A3.66,3.66,0,0,1,150.19,57.88Z"/><path class="cls-6" d="M121.07,95.74l-1,.17a5.13,5.13,0,0,0-.25-.69l.84-.48a8.74,8.74,0,0,0-.92-1.6l-.84.49c-.15-.19-.3-.38-.47-.56l.63-.74a8.89,8.89,0,0,0-1.41-1.19l-.42.5-.21.25a6.5,6.5,0,0,0-.63-.37l.33-.91a8.05,8.05,0,0,0-1.29-.51L115,90l-.31.87,0,0q-.35-.08-.72-.12v-1a7,7,0,0,0-.92,0,7.09,7.09,0,0,0-.92,0v1c-.24,0-.48.07-.71.12l0,0-.32-.87-.43.12a8.55,8.55,0,0,0-1.3.51l.34.91a6.5,6.5,0,0,0-.63.37l-.21-.25-.42-.5A8.89,8.89,0,0,0,107,92.33l.63.74c-.17.18-.32.37-.47.56l-.84-.49a7.72,7.72,0,0,0-.92,1.6l.84.48a5.13,5.13,0,0,0-.25.69l-1-.17a8.37,8.37,0,0,0-.32,1.81l1,.17c0,.12,0,.24,0,.36s0,.25,0,.37l-1,.17a8.37,8.37,0,0,0,.32,1.81l1-.17a6.37,6.37,0,0,0,.25.69l-.84.48a7.4,7.4,0,0,0,.92,1.59l.84-.48c.15.19.3.38.47.56l-.63.74a8.83,8.83,0,0,0,1.41,1.18l.42-.49.21-.25a6.44,6.44,0,0,0,.63.36l-.34.92a9.74,9.74,0,0,0,1.3.51l.43.12.32-.87,0,0a5.55,5.55,0,0,0,.71.13v1c.31,0,.61,0,.92,0s.62,0,.92,0v-1a5.4,5.4,0,0,0,.72-.13l0,0,.31.87.44-.12a9.11,9.11,0,0,0,1.29-.51l-.33-.92a6.44,6.44,0,0,0,.63-.36l.21.25.42.49a8.83,8.83,0,0,0,1.41-1.18l-.63-.74c.17-.18.32-.37.47-.56l.84.48a8.34,8.34,0,0,0,.92-1.59l-.84-.48a6.37,6.37,0,0,0,.25-.69l1,.17a8.36,8.36,0,0,0,.31-1.81l-.95-.17c0-.12,0-.24,0-.37s0-.24,0-.36l.95-.17A8.36,8.36,0,0,0,121.07,95.74Zm-4.41-3.09a5.41,5.41,0,0,1,.61.46,6.24,6.24,0,0,1,1.23,1.38l-1.23.71-1.8,1-.75.43-.15.09a.77.77,0,0,0-.18-.18l.33-.57.75-1.3Zm-3.2-1.07a5.91,5.91,0,0,1,1.26.2,6,6,0,0,1,.75.25,4.46,4.46,0,0,1,.5.22l-.5.87-.75,1.31-1,1.75-.24-.07Zm-2.8.45a6,6,0,0,1,.75-.25,5.91,5.91,0,0,1,1.26-.2v4.53l-.25.07-1-1.75-.75-1.31-.51-.87C110.32,92.17,110.49,92.09,110.66,92Zm-1.8,1.07a6.85,6.85,0,0,1,.61-.45l1.19,2.06.75,1.31.32.56a1,1,0,0,0-.17.18l-.15-.09-.75-.43-1.8-1-1.23-.71A6.53,6.53,0,0,1,108.86,93.1Zm-1.63,2.07,1.63.94,1.8,1,.5.29a1.82,1.82,0,0,0-.07.25h-4.53A6.5,6.5,0,0,1,107.23,95.17Zm-.67,3.31h4.53a1.68,1.68,0,0,0,.07.24l-.5.3-1.8,1-1.63.94A6.4,6.4,0,0,1,106.56,98.48Zm2.91,5a5.41,5.41,0,0,1-.61-.46,6.47,6.47,0,0,1-1.23-1.38l1.23-.71,1.8-1,.75-.43.15-.09a1,1,0,0,0,.17.18l-.32.56-.75,1.31Zm3.2,1.07a7.52,7.52,0,0,1-1.26-.2,6,6,0,0,1-.75-.25l-.51-.22.51-.87.75-1.31,1-1.75a1,1,0,0,0,.25.06Zm-.93-6.51a1.33,1.33,0,1,1,1.32,1.33A1.32,1.32,0,0,1,111.74,98.08Zm3.73,6.06a6,6,0,0,1-.75.25,7.52,7.52,0,0,1-1.26.2v-4.54a.94.94,0,0,0,.24-.06l1,1.75.75,1.31.5.87Zm1.8-1.08a5.41,5.41,0,0,1-.61.46l-1.19-2.06-.75-1.31-.33-.56a1,1,0,0,0,.18-.18l.15.09.75.43,1.8,1,1.23.71A6.47,6.47,0,0,1,117.27,103.06ZM118.9,101l-1.63-.94-1.8-1-.5-.3a.94.94,0,0,0,.06-.24h4.54A6.58,6.58,0,0,1,118.9,101Zm-1.63-3.3H115a1,1,0,0,0-.06-.25l.5-.29,1.8-1,1.63-.93a6.58,6.58,0,0,1,.67,2.51Z"/><path class="cls-7" d="M151.44,95.29a6.84,6.84,0,0,0-.32-1.2l1.67-1a10.13,10.13,0,0,0-.64-1.33,10.46,10.46,0,0,0-.83-1.22l-1.67,1a8.22,8.22,0,0,0-.89-.88l1-1.67a10.46,10.46,0,0,0-1.22-.83,9,9,0,0,0-1.33-.64l-1,1.67a8.19,8.19,0,0,0-1.2-.33V86.92a10.32,10.32,0,0,0-1.48-.1,10.18,10.18,0,0,0-1.47.1v1.93a8.32,8.32,0,0,0-1.21.33l-1-1.67a9,9,0,0,0-1.33.64,10.46,10.46,0,0,0-1.22.83l1,1.67a9.14,9.14,0,0,0-.88.88l-1.67-1a10.46,10.46,0,0,0-.83,1.22,9,9,0,0,0-.64,1.33l1.67,1a6.84,6.84,0,0,0-.32,1.2h-1.94a10.93,10.93,0,0,0,0,2.95h1.94a7.08,7.08,0,0,0,.32,1.2l-1.67,1a9,9,0,0,0,.64,1.33,10.46,10.46,0,0,0,.83,1.22l1.67-1a9.24,9.24,0,0,0,.88.89l-1,1.67a10.46,10.46,0,0,0,1.22.83,10.13,10.13,0,0,0,1.33.64l1-1.67a7.19,7.19,0,0,0,1.21.32v1.93a8.93,8.93,0,0,0,1.47.11,9,9,0,0,0,1.48-.11v-1.93a7.08,7.08,0,0,0,1.2-.32l1,1.67a10.13,10.13,0,0,0,1.33-.64,10.46,10.46,0,0,0,1.22-.83l-1-1.67a8.31,8.31,0,0,0,.89-.89l1.67,1a10.46,10.46,0,0,0,.83-1.22,10.13,10.13,0,0,0,.64-1.33l-1.67-1a7.08,7.08,0,0,0,.32-1.2h1.93a9.94,9.94,0,0,0,0-2.95Zm-2.21,1.43V97a.71.71,0,0,1,0,.14v0h0v0s0,.08,0,.12h0a5.61,5.61,0,0,1-.17.91h0a5.24,5.24,0,0,1-.57,1.37,4.08,4.08,0,0,1-.28.44v0h0a5.85,5.85,0,0,1-1.37,1.35h0l-.07,0-.05,0h0l0,0-.24.14a5.39,5.39,0,0,1-1.07.48h-.06l-.05,0-.07,0h0l-.09,0h0l-.07,0h0l-.11,0h-.05l-.07,0h-.13l-.1,0h0l-.09,0h0l-.11,0H142.6a5.23,5.23,0,0,1-.54-.12h0a5.24,5.24,0,0,1-1.37-.57,4.28,4.28,0,0,1-.42-.26l0,0h0l0,0h0a5.76,5.76,0,0,1-1.27-1.29l0,0h0v0l0,0v0l-.23-.36a5.84,5.84,0,0,1-.56-1.35v0h0v0h0v0h0v0h0v0h0v-.07h0v0h0v0h0v0h0v0h0v-.09h0v0h0V97.7h0v0h0v-.05h0v0h0v0h0v-.09h0v-.14h0v-.09h0v0h0v-.31h0v-.35h0v0a.71.71,0,0,1,0-.14h0v0h0v0h0s0-.07,0-.11a6.65,6.65,0,0,1,.16-.91h0a5.57,5.57,0,0,1,.56-1.37q.14-.23.27-.42v0l0,0v0h0a5.85,5.85,0,0,1,1.37-1.35h0l.07,0,0,0h0l0,0,.25-.15a6.23,6.23,0,0,1,1.06-.47h.07l0,0,.07,0h0l.09,0h0l.07,0h0l.11,0h0l.07,0h0l.06,0h.05l.09,0h1.83l.54.11a6,6,0,0,1,1.37.57l.32.2,0,0h0l0,0h0v0h0a5.52,5.52,0,0,1,1.32,1.32l0,0h0v0l0,0a3.13,3.13,0,0,1,.22.36,5.47,5.47,0,0,1,.57,1.35v0h0v.11h0v0h0v0h0v0h0v0h0v.09h0v.07h0v0h0v.09h0v0h0V96h0v0h0v.3h0v0h0v0h0v0h0v0h0v.26Z"/><path class="cls-4" d="M158.34,78.66c0-.08,0-.17,0-.26l.68-.12a5.54,5.54,0,0,0-.23-1.29l-.68.12a4.09,4.09,0,0,0-.18-.49l.6-.34a5.34,5.34,0,0,0-.65-1.14l-.6.35c-.11-.14-.22-.27-.34-.4l.45-.53a5.43,5.43,0,0,0-1-.84l-.29.35-.15.18c-.15-.1-.3-.18-.45-.26l.24-.65a6.1,6.1,0,0,0-.92-.37l-.32-.08-.22.62v0a4.54,4.54,0,0,0-.51-.09v-.69a5.47,5.47,0,0,0-1.32,0v.69a4.54,4.54,0,0,0-.51.09v0l-.22-.62-.32.08a6.55,6.55,0,0,0-.92.37l.24.65c-.15.08-.3.16-.45.26l-.15-.18-.29-.35a5.43,5.43,0,0,0-1,.84l.45.53c-.12.13-.23.26-.34.4l-.6-.35a5.8,5.8,0,0,0-.65,1.14l.6.34a4.09,4.09,0,0,0-.18.49l-.68-.12a6.11,6.11,0,0,0-.23,1.29l.68.12v.52l-.68.12a6,6,0,0,0,.23,1.29l.68-.12a4.09,4.09,0,0,0,.18.49l-.6.35a6,6,0,0,0,.65,1.13l.6-.34a4.32,4.32,0,0,0,.34.39l-.45.54a5.85,5.85,0,0,0,1,.84l.29-.36.15-.17.45.26-.24.65a6.49,6.49,0,0,0,.92.36l.32.09.22-.62v0a4.54,4.54,0,0,0,.51.09v.69c.22,0,.44,0,.66,0s.44,0,.66,0v-.69l.51-.09v0l.22.62.32-.09a6.05,6.05,0,0,0,.92-.36l-.24-.65.45-.26.15.18.29.35a5.85,5.85,0,0,0,1-.84l-.45-.54c.12-.12.23-.26.34-.39l.6.34a5.52,5.52,0,0,0,.65-1.13l-.6-.35a4.09,4.09,0,0,0,.18-.49l.68.12A5.45,5.45,0,0,0,159,79l-.68-.12C158.33,78.84,158.34,78.75,158.34,78.66Zm-.62-.28h-3.24a.85.85,0,0,0,0-.17l.36-.21,1.28-.74,1.16-.67A4.66,4.66,0,0,1,157.72,78.38Zm-2.08-3.59.44.32a4.83,4.83,0,0,1,.87,1l-.87.51-1.28.74-.54.31-.11.06a.74.74,0,0,0-.12-.13l.23-.4.54-.93ZM153.36,74a4.45,4.45,0,0,1,.9.14q.27.08.54.18a2.21,2.21,0,0,1,.35.16l-.35.61-.54.94-.72,1.24-.18,0Zm-2,.31.54-.17a4.45,4.45,0,0,1,.9-.14v3.23l-.18,0-.72-1.24-.54-.93-.35-.62Zm-1.28.77.44-.32.84,1.47.54.93.23.4-.12.12-.11,0-.54-.31-1.28-.74-.87-.51A4.83,4.83,0,0,1,150.08,75.11Zm-1.16,1.48,1.16.67,1.28.74.36.21a.85.85,0,0,0,0,.17h-3.24A4.66,4.66,0,0,1,148.92,76.59ZM148.45,79h3.23a1.36,1.36,0,0,0,0,.17l-.36.21-1.28.74-1.16.67A4.52,4.52,0,0,1,148.45,79Zm2.07,3.59a4.59,4.59,0,0,1-.44-.33,4.78,4.78,0,0,1-.87-1l.87-.51,1.28-.74.54-.31.11-.06.12.13-.23.4-.54.93Zm2.28.76a5.28,5.28,0,0,1-.9-.14q-.27-.07-.54-.18l-.35-.16.35-.62.54-.93.72-1.25.18,0Zm-.66-4.64a.95.95,0,0,1,1.89,0,.95.95,0,1,1-1.89,0ZM154.8,83q-.27.1-.54.18a5.28,5.28,0,0,1-.9.14V80.07l.18,0,.72,1.25.54.93.35.62Zm1.28-.77a4.59,4.59,0,0,1-.44.33l-.84-1.47-.54-.93-.23-.4.12-.13.11.06.54.31,1.28.74.87.51A4.78,4.78,0,0,1,156.08,82.21Zm1.16-1.47-1.16-.67-1.28-.74-.36-.21a1.36,1.36,0,0,0,0-.17h3.24A4.71,4.71,0,0,1,157.24,80.74Z"/><path class="cls-4" d="M116.08,22.51a4.64,4.64,0,0,0,.17.64l-.89.51a6.59,6.59,0,0,0,.34.71,6.16,6.16,0,0,0,.44.65l.9-.51c.14.16.3.32.46.47l-.51.89a6.16,6.16,0,0,0,.65.44l.12.07c.2.1.39.19.59.27l.51-.89a4.64,4.64,0,0,0,.64.17v1a5.16,5.16,0,0,0,.79.06,4.93,4.93,0,0,0,.78-.06v-1a4.29,4.29,0,0,0,.64-.17l.52.89a6.11,6.11,0,0,0,.58-.27l.13-.07a7.4,7.4,0,0,0,.65-.44l-.52-.89a5.21,5.21,0,0,0,.47-.47l.89.51a4.94,4.94,0,0,0,.44-.65,5.19,5.19,0,0,0,.35-.71l-.89-.51a4.64,4.64,0,0,0,.17-.64h1a6.84,6.84,0,0,0,0-.79,6.66,6.66,0,0,0,0-.78h-1a4.29,4.29,0,0,0-.17-.64l.89-.52a5.83,5.83,0,0,0-.35-.71,5.7,5.7,0,0,0-.44-.65l-.89.52a3.48,3.48,0,0,0-.47-.47l.52-.89a5.7,5.7,0,0,0-.65-.44l-.13-.07a4.41,4.41,0,0,0-.58-.28l-.52.89a4.29,4.29,0,0,0-.64-.17v-1a6.53,6.53,0,0,0-.78-.05,6.84,6.84,0,0,0-.79.05v1a4.64,4.64,0,0,0-.64.17l-.51-.89a5.25,5.25,0,0,0-.59.28l-.12.07a4.94,4.94,0,0,0-.65.44l.52.89a3.48,3.48,0,0,0-.47.47l-.9-.52a7.4,7.4,0,0,0-.44.65,7.64,7.64,0,0,0-.34.71l.89.52a4.29,4.29,0,0,0-.17.64h-1a5,5,0,0,0-.06.78,5.16,5.16,0,0,0,.06.79Zm6.73-1.84a1.06,1.06,0,1,1-1,1A1.05,1.05,0,0,1,122.81,20.67Zm-2.52-2.53a1.06,1.06,0,1,1-1.06,1.06A1.05,1.05,0,0,1,120.29,18.14Zm.7,3.58a.7.7,0,0,1-.7.71.71.71,0,0,1-.71-.71.7.7,0,0,1,.71-.7A.7.7,0,0,1,121,21.72Zm-.7,1.47a1.06,1.06,0,1,1-1.06,1.06A1.05,1.05,0,0,1,120.29,23.19Zm-2.53-2.52a1.06,1.06,0,1,1-1.05,1A1.05,1.05,0,0,1,117.76,20.67Z"/><path class="cls-5" d="M104.07,17.16a4.42,4.42,0,0,0,.14.52l-.72.41a4.41,4.41,0,0,0,.28.58,4.8,4.8,0,0,0,.36.52l.72-.41a4.54,4.54,0,0,0,.38.38l-.42.72a4.12,4.12,0,0,0,1.1.63l.42-.72a3.07,3.07,0,0,0,.52.14v.83a4.34,4.34,0,0,0,.63,0,4.48,4.48,0,0,0,.64,0v-.83a3.07,3.07,0,0,0,.52-.14l.41.72a4.35,4.35,0,0,0,.58-.27,4.8,4.8,0,0,0,.52-.36l-.41-.72c.13-.12.26-.25.38-.38l.72.41a3.64,3.64,0,0,0,.35-.52,4.41,4.41,0,0,0,.28-.58l-.72-.41a3.07,3.07,0,0,0,.14-.52h.83a4.06,4.06,0,0,0,0-1.27h-.83a3.07,3.07,0,0,0-.14-.52l.72-.42a5,5,0,0,0-.28-.57,3.74,3.74,0,0,0-.35-.53l-.72.42a4.54,4.54,0,0,0-.38-.38l.41-.72a4.8,4.8,0,0,0-.52-.36,3.38,3.38,0,0,0-.58-.27l-.41.72a3.07,3.07,0,0,0-.52-.14v-.84a4.49,4.49,0,0,0-.64,0,4.35,4.35,0,0,0-.63,0v.84a3.07,3.07,0,0,0-.52.14l-.42-.72a3.67,3.67,0,0,0-.57.27,4.93,4.93,0,0,0-.53.36l.42.72a4.54,4.54,0,0,0-.38.38l-.72-.42a4.93,4.93,0,0,0-.36.53,5,5,0,0,0-.28.57l.72.42a4.42,4.42,0,0,0-.14.52h-.83a4.44,4.44,0,0,0,0,.63,4.49,4.49,0,0,0,0,.64Zm1-.58h0v0h0v0h0v0h0a.13.13,0,0,1,0-.06h0v0a2.66,2.66,0,0,1,.07-.39h0a2.75,2.75,0,0,1,.25-.59,1.74,1.74,0,0,1,.11-.18h0a2.5,2.5,0,0,1,.59-.58h0l0,0h0l.11-.06a2.22,2.22,0,0,1,.45-.2h1.18l.23.06a2.29,2.29,0,0,1,.59.24l.14.09h.06a2.37,2.37,0,0,1,.57.57v0h0s.07.1.1.16a3,3,0,0,1,.24.58h0v0h0v0h0v0h0v0h0v0h0v.06h0v.05a1.78,1.78,0,0,1-.07.39,2.29,2.29,0,0,1-.24.59l-.12.19h0a2.5,2.5,0,0,1-.59.58h0l0,0h0l-.1.07a2.67,2.67,0,0,1-.46.2h-1.17l-.23-.05h0a2.29,2.29,0,0,1-.59-.24l-.18-.12h0a2.44,2.44,0,0,1-.55-.56l0,0h0a1.4,1.4,0,0,1-.1-.16,2.23,2.23,0,0,1-.24-.58H105Z"/><path class="cls-4" d="M132,94.28c0-.16-.07-.31-.11-.45l-1.17.2a2.19,2.19,0,0,0-.12-.33l1-.6a4,4,0,0,0-.21-.41c-.08-.13-.16-.26-.25-.38l-1,.59a3,3,0,0,0-.23-.27l.76-.91a3.34,3.34,0,0,0-.33-.32,4.33,4.33,0,0,0-.37-.27l-.76.91a2,2,0,0,0-.32-.18l.41-1.12a3.12,3.12,0,0,0-.42-.18,3.66,3.66,0,0,0-.44-.13l-.41,1.11-.35-.06V90.3a3.54,3.54,0,0,0-.92,0v1.18l-.35.06L126,90.43a3.66,3.66,0,0,0-.44.13,3.12,3.12,0,0,0-.42.18l.41,1.12a2,2,0,0,0-.32.18l-.76-.91a3.18,3.18,0,0,0-.37.27,3.34,3.34,0,0,0-.33.32l.76.91a3,3,0,0,0-.23.27l-1-.59c-.09.12-.17.25-.25.38a2.58,2.58,0,0,0-.2.41l1,.6a2.19,2.19,0,0,0-.12.33l-1.17-.2c0,.14-.08.29-.11.45s0,.3,0,.45l1.17.21a1.62,1.62,0,0,0,0,.36l-1.17.2c0,.15,0,.31,0,.46s.07.3.11.45l1.17-.21a2,2,0,0,0,.12.34l-1,.59a2.22,2.22,0,0,0,.2.41c.08.14.16.26.25.39l1-.6a3.11,3.11,0,0,0,.23.28l-.76.91a3.26,3.26,0,0,0,.33.31l.37.28.76-.91.32.18-.41,1.11.42.19.44.13.41-1.12.35.07v1.18a3.54,3.54,0,0,0,.92,0V98.76l.35-.07.41,1.12.44-.13c.14-.06.29-.12.42-.19l-.41-1.11.32-.18.76.91.37-.28a3.26,3.26,0,0,0,.33-.31l-.76-.91a3.11,3.11,0,0,0,.23-.28l1,.6c.09-.13.17-.25.25-.39a3.17,3.17,0,0,0,.21-.41l-1-.59a2,2,0,0,0,.12-.34l1.17.21c0-.15.08-.3.11-.45s0-.31,0-.46l-1.17-.2c0-.06,0-.12,0-.18s0-.12,0-.18l1.17-.21C132.06,94.58,132,94.43,132,94.28Zm-4.78,3a2.22,2.22,0,1,1,2.22-2.21A2.22,2.22,0,0,1,127.24,97.33Z"/><path class="cls-4" d="M88.87,34.53a3.88,3.88,0,0,0,.58.09l.2-.84h.18l.38,0,.25.83a4.94,4.94,0,0,0,.64-.15,3.79,3.79,0,0,0,.62-.23l-.24-.83.39-.24.08,0,.63.59a3.44,3.44,0,0,0,.49-.45,4.06,4.06,0,0,0,.42-.51l-.63-.6a3.84,3.84,0,0,0,.27-.49l.84.2a4.21,4.21,0,0,0,.2-.63,3.8,3.8,0,0,0,.1-.65l-.84-.2a3.47,3.47,0,0,0,0-.56l.83-.25a5.08,5.08,0,0,0-.15-.65,4.62,4.62,0,0,0-.23-.62l-.83.25a3.88,3.88,0,0,0-.3-.48l.6-.62a3,3,0,0,0-.45-.49,3.35,3.35,0,0,0-.51-.42l-.51.54-.09.09a3.84,3.84,0,0,0-.49-.27l.2-.84a4.21,4.21,0,0,0-.63-.2,5.19,5.19,0,0,0-.65-.11l-.2.84h-.18l-.38,0-.25-.83-.32.07h0a.31.31,0,0,0-.22.32V27c0,.45.24.27.24.27v0l.07,0a.87.87,0,0,1,1.1.6.88.88,0,0,1-.24.9.91.91,0,0,1-.36.2A.81.81,0,0,1,89,29h0c-.28,0-.28.26-.28.26v1.51a1.21,1.21,0,0,1,0,.19v3.12C88.66,34.41,88.84,34.51,88.87,34.53Zm2.74-5.77a.78.78,0,0,1,.26,0,.89.89,0,0,1,.25,1.74,1.09,1.09,0,0,1-.25,0,.89.89,0,0,1-.26-1.74ZM91.29,32a.89.89,0,0,1-1.46.9.83.83,0,0,1-.24-.39.88.88,0,0,1,.24-.9,1,1,0,0,1,.35-.21A.9.9,0,0,1,91.29,32Zm-1.63-2.35a.51.51,0,0,1,.17,0A.6.6,0,0,1,90,30.79l-.17,0a.6.6,0,0,1-.57-.42A.59.59,0,0,1,89.66,29.65Z"/><path class="cls-4" d="M88.87,22.63l.82-1c.12.07.24.15.37.21l-.48,1.31a4.07,4.07,0,0,0,1,.37l.47-1.31a3.07,3.07,0,0,0,.42.07v1.4a4.89,4.89,0,0,0,.54,0,4.63,4.63,0,0,0,.54,0V22.3a3.07,3.07,0,0,0,.42-.07l.48,1.31a5.08,5.08,0,0,0,.52-.15,3.64,3.64,0,0,0,.49-.22L94,21.86l.37-.21.89,1.07.44-.32A4.68,4.68,0,0,0,96.1,22L95.2,21c.1-.1.19-.21.28-.32l1.21.7.3-.46a4.3,4.3,0,0,0,.24-.48L96,19.69c0-.13.1-.26.14-.4l1.38.24a4.37,4.37,0,0,0,.12-.52,2.48,2.48,0,0,0,.06-.54l-1.37-.24V17.8l1.37-.24a2.48,2.48,0,0,0-.06-.54,4.37,4.37,0,0,0-.12-.52l-1.38.24c0-.14-.09-.27-.14-.4l1.21-.7q-.11-.24-.24-.48t-.3-.45l-1.21.69c-.09-.11-.18-.22-.28-.32L96.1,14a3.41,3.41,0,0,0-.39-.37,4.59,4.59,0,0,0-.44-.33l-.89,1.07L94,14.17l.47-1.31c-.15-.08-.32-.15-.49-.22a5.08,5.08,0,0,0-.52-.15L93,13.8l-.42-.07v-1.4a4.63,4.63,0,0,0-.54,0l-.54,0v1.4l-.42.07-.47-1.31a4.44,4.44,0,0,0-.52.15l-.5.22.48,1.31-.37.21-.9-1.07-.07.06s-.06,0-.06.2v1.06a.4.4,0,0,0,.08.28h0l.13.17c0,.05-.09.1-.13.16a.47.47,0,0,0-.07.21v5.06a.48.48,0,0,0,.07.29l.13.15-.12.15a.46.46,0,0,0-.08.27v1.05C88.66,22.72,88.87,22.63,88.87,22.63ZM92,15.4A2.62,2.62,0,1,1,89.42,18,2.61,2.61,0,0,1,92,15.4Z"/><path class="cls-7" d="M89.21,96.43c.45,0,.91-.05,1.36-.1V92.85c.87-.11,1.73-.26,2.57-.45l.06.15,1.13,3.12c.53-.13,1.06-.27,1.57-.43a29.64,29.64,0,0,0,4.64-1.83l-1.19-3.28a24.05,24.05,0,0,0,2.26-1.3l.75.89,1.49,1.78a30.32,30.32,0,0,0,5.06-4.25l-2.24-2.67c.59-.64,1.15-1.31,1.68-2l3,1.74a29,29,0,0,0,3.31-5.72l-3-1.74c.33-.8.63-1.62.89-2.45L116,75a29.67,29.67,0,0,0,1.14-6.51l-3.43-.6c0-.43,0-.87,0-1.3s0-.88,0-1.31l3.43-.6A29.67,29.67,0,0,0,116,58.18l-3.43.6c-.26-.83-.56-1.65-.89-2.45l3-1.74a29.28,29.28,0,0,0-3.31-5.72l-3,1.74c-.53-.69-1.09-1.36-1.68-2l2.24-2.67a30.32,30.32,0,0,0-5.06-4.25l-1.49,1.79-.75.88c-.73-.47-1.48-.9-2.26-1.3l1.19-3.28A29.64,29.64,0,0,0,95.9,38c-.51-.16-1-.3-1.57-.43L93.2,40.64l-.06.16a21.91,21.91,0,0,0-2.57-.45v-3c0-.42-.18-.53-.3-.56-.38,0-.76-.06-1.14-.09a.45.45,0,0,0-.47.35v5.65a.53.53,0,0,0,.44.54h0a22.37,22.37,0,0,1,6.81,1.56q.93.38,1.8.81l-1.8,3.12-2.7,4.68-3.63,6.29A6.25,6.25,0,0,0,89,59.6c-.29,0-.29.26-.29.26v1.82c0,.48.28.49.28.49h0a4.7,4.7,0,0,1,0,8.85s0,0,0,0c-.18,0-.21.13-.22.19v2.11c0,.23.15.26.21.27.24-.06.47-.11.7-.19l3.63,6.29,2.7,4.68,1.8,3.12c-.58.3-1.18.56-1.8.81a24.37,24.37,0,0,1-2.7.89,23.53,23.53,0,0,1-4.14.67h0s-.41,0-.41.73V96A.48.48,0,0,0,89.21,96.43Zm19-19.4-5.83-3.37L95.9,69.94l-1.8-1a6.74,6.74,0,0,0,.24-.88h16.27A23.18,23.18,0,0,1,108.19,77Zm2.41-11.86H94.34a6.74,6.74,0,0,0-.24-.88l1.8-1,6.46-3.73,5.83-3.37A23.17,23.17,0,0,1,110.6,65.17Zm-17.4-6,2.7-4.68,4.27-7.39a24.86,24.86,0,0,1,2.19,1.63,23.94,23.94,0,0,1,4.41,5l-4.41,2.55L95.9,60l-2.7,1.56-.52.3a7.73,7.73,0,0,0-.64-.64ZM95.9,78.7,93.2,74,92,72a7.73,7.73,0,0,0,.64-.64l.52.31,2.7,1.56L102.36,77l4.41,2.55a23.69,23.69,0,0,1-4.41,5,27.14,27.14,0,0,1-2.19,1.64Z"/><path class="cls-4" d="M89.34,112.9l1.14-.66.31.28a7.12,7.12,0,0,0,2.37,1.35l.29.09v2.13a9.31,9.31,0,0,0,1.91.2,9.16,9.16,0,0,0,1.91-.2V114l.3-.09a6.84,6.84,0,0,0,1.75-.88,5.61,5.61,0,0,0,.62-.47l.3-.28,1.85,1.07a9.78,9.78,0,0,0,1.13-1.55A8.84,8.84,0,0,0,104,110l-1.85-1.07a6.85,6.85,0,0,0,.21-1.71,7,7,0,0,0-.21-1.72l1.85-1.06a8.84,8.84,0,0,0-.78-1.76,9.34,9.34,0,0,0-1.13-1.55l-1.85,1.07-.3-.28a5.61,5.61,0,0,0-.62-.47,6.84,6.84,0,0,0-1.75-.88l-.3-.09V98.35a8.54,8.54,0,0,0-1.91-.21,8.67,8.67,0,0,0-1.91.21v2.13l-.29.09a7.07,7.07,0,0,0-1.76.88,5.5,5.5,0,0,0-.61.47l-.31.28-1.36-.79s-.46-.24-.46.83v10.31C88.67,112.79,88.77,113.23,89.34,112.9ZM91.71,110a.58.58,0,0,1-.31.08.62.62,0,0,1-.53-.3.53.53,0,0,1-.08-.23.43.43,0,0,1,0-.16.61.61,0,0,1,.3-.46.71.71,0,0,1,.31-.08.62.62,0,0,1,.31,1.15Zm3.65,2.37a.61.61,0,0,1-.61-.62.61.61,0,0,1,.61-.61.61.61,0,0,1,.62.61A.62.62,0,0,1,95.36,112.41Zm2.39-.85a.39.39,0,0,1-.18,0,.37.37,0,0,1-.33-.19.37.37,0,0,1,.15-.51.36.36,0,0,1,.51.15A.39.39,0,0,1,97.75,111.56Zm2.51-4.43a.37.37,0,0,1-.14.51.41.41,0,0,1-.18,0,.36.36,0,0,1-.33-.19.37.37,0,0,1,.14-.51.32.32,0,0,1,.19,0A.36.36,0,0,1,100.26,107.13ZM99,104.4a.61.61,0,0,1,.31-.09.67.67,0,0,1,.54.31,1,1,0,0,1,.08.23V105a.65.65,0,0,1-.31.46.68.68,0,0,1-.31.08.6.6,0,0,1-.53-.31A.62.62,0,0,1,99,104.4Zm-.22,4.8a.6.6,0,0,1,.53-.31.68.68,0,0,1,.31.08.65.65,0,0,1,.31.46v.16a.7.7,0,0,1-.08.23.63.63,0,0,1-.54.3A.6.6,0,0,1,99,110,.62.62,0,0,1,98.79,109.2ZM97.55,103h0a.37.37,0,0,1,.34.66.32.32,0,0,1-.34,0,.35.35,0,0,1-.17-.15A.38.38,0,0,1,97.55,103Zm-2.19-1a.62.62,0,1,1,0,1.23.62.62,0,0,1,0-1.23Zm0,3.08a2.11,2.11,0,1,1-2.11,2.11A2.1,2.1,0,0,1,95.36,105.11ZM93,102.88a.37.37,0,0,1,.18,0,.39.39,0,0,1,.33.19.38.38,0,0,1-.15.51.41.41,0,0,1-.18,0,.38.38,0,0,1-.18-.71Zm-.17,7.92a.36.36,0,0,1,.35,0,.33.33,0,0,1,.16.15.37.37,0,0,1-.15.51h0a.38.38,0,0,1-.35-.67Zm-2-6a.53.53,0,0,1,.08-.23.65.65,0,0,1,.53-.31.59.59,0,0,1,.31.09.62.62,0,0,1-.31,1.15.71.71,0,0,1-.31-.08.61.61,0,0,1-.3-.46A.43.43,0,0,1,90.79,104.85Zm-.18,2a.29.29,0,0,1,.18,0,.39.39,0,0,1,.33.19.38.38,0,0,1-.15.51.31.31,0,0,1-.18,0,.38.38,0,0,1-.33-.2A.36.36,0,0,1,90.61,106.8Z"/><path class="cls-8" d="M117.48,131.93a13.53,13.53,0,0,0-.56-2.1l2.92-1.68a19.75,19.75,0,0,0-1.12-2.32,18.55,18.55,0,0,0-1.45-2.13l-2.92,1.69a13.91,13.91,0,0,0-1.53-1.54l1.68-2.91a16,16,0,0,0-2.13-1.45,16.48,16.48,0,0,0-2.32-1.12l-1.68,2.91a13.23,13.23,0,0,0-2.1-.56v-3.36a17.41,17.41,0,0,0-5.13,0v3.36a13.53,13.53,0,0,0-2.1.56l-1.68-2.91A17,17,0,0,0,95,119.49a17.36,17.36,0,0,0-2.13,1.45l1.69,2.91a14,14,0,0,0-1.54,1.54l-2.91-1.69a18.54,18.54,0,0,0-1.21,1.78,4.7,4.7,0,0,0-.28,1.29V128a1.38,1.38,0,0,0,.57,1.07h0l1.26.73a13.53,13.53,0,0,0-.56,2.1h-.7s-.57,0-.57,1v3.32a.73.73,0,0,0,.68.79h.59a13.23,13.23,0,0,0,.56,2.1l-1.3.75a2,2,0,0,0-.53,1.4v1a3.09,3.09,0,0,0,.35,1.35,16.36,16.36,0,0,0,1.14,1.67l2.91-1.68a13.91,13.91,0,0,0,1.54,1.53l-1.32,2.29a.89.89,0,0,0,.22,1,16.59,16.59,0,0,0,1.54,1,17,17,0,0,0,2.32,1.12L99,147.71a13.53,13.53,0,0,0,2.1.56v3.37a17.41,17.41,0,0,0,5.13,0v-3.37a13.23,13.23,0,0,0,2.1-.56l1.68,2.91a16.48,16.48,0,0,0,2.32-1.12,16.9,16.9,0,0,0,2.13-1.44l-1.68-2.92a13.82,13.82,0,0,0,1.53-1.53l2.92,1.68a17,17,0,0,0,1.45-2.13,19,19,0,0,0,1.12-2.32l-2.92-1.68a13.23,13.23,0,0,0,.56-2.1h3.37a17.41,17.41,0,0,0,0-5.13Zm-3.86,2.61h0V135c0,.08,0,.17,0,.25h0v.08h0a1.23,1.23,0,0,1,0,.2,10.23,10.23,0,0,1-.28,1.58h0a9.55,9.55,0,0,1-1,2.39c-.15.27-.31.52-.48.77l0,0,0,0h0a10.1,10.1,0,0,1-2.39,2.36h0l-.12.09-.08.05,0,0,0,0-.43.25a9.86,9.86,0,0,1-1.85.84h-.11l-.08,0-.12,0h-.07l-.15,0h0l-.11,0H106l-.18,0h-.09l-.12,0h0l-.11,0h-.07l-.17,0h-.09l-.17,0h-.07l-.18,0h0l-.21,0H102.4l-.12,0h-.2c-.32-.05-.63-.12-.94-.2h0a9.71,9.71,0,0,1-2.39-1c-.25-.14-.5-.3-.73-.46l0,0,0,0h0l0,0,0,0h0a10.08,10.08,0,0,1-2.22-2.25l-.06-.08h0l0,0,0,0,0,0c-.13-.2-.27-.41-.39-.63a9.6,9.6,0,0,1-1-2.35v0h0V137h0v0h0v-.08h0v0h0v0h0v0h0v0h0v0h0v0h0v0h0v0h0v0h0v0h0v0h0v0h0v0h0v-.08h0v0h0v0h0v0h0v-.07h0V136h0v0h0v-.08h0v-.08h0v-.08h0v-.09h0v-.08h0v0h0v-.12h0v0h0v-.08h0v-.08h0v0h0v0h0v-.46h0v-.2h0V134c0-.08,0-.16,0-.24v-.09c0-.06,0-.13,0-.2a9.17,9.17,0,0,1,.29-1.58h0a10.07,10.07,0,0,1,1-2.39c.15-.25.3-.5.46-.73l0,0,0,0,0,0h0A9.84,9.84,0,0,1,98,126.36h0l.12-.08.09-.06,0,0,0,0,.42-.26a9.62,9.62,0,0,1,1.86-.83h0l0,0h0l.08,0,.12,0H101l.14,0h.05l.12,0h.07l.18,0h.09l.12,0h0l.11,0H102l.17,0h.08l.17,0h.07l.19,0h0l.21,0h0l.22,0h2l.12,0h0c.31.06.63.12.93.21h0a10.14,10.14,0,0,1,2.4,1l.56.35,0,0,0,0,0,0,0,0h0l0,0,0,0h0a10.08,10.08,0,0,1,2.31,2.3l.06.09h0l0,0,0,0,0,0a6.65,6.65,0,0,1,.39.63,9.8,9.8,0,0,1,1,2.35v0h0V132h0v0h0v0h0v0h0v0h0v0h0v.08h0v0h0v0h0v0l0,.08h0v0l0,.08v.08h0v.08h0v0h0v0h0v0h0V133h0v.12h0v0h0v.24h0v.28h0v.21h0v0h0v.41h0v0h0v.08h0v.13Z"/><path class="cls-9" d="M56.32,170.38h59.61c2.38,0,4.3,2.19,4.3,4.92s-1.92,4.91-4.3,4.91H56.32c-2.36,0-4.27-2.21-4.27-4.91S54,170.38,56.32,170.38Z"/><path class="cls-9" d="M56.32,184.12h59.61c2.38,0,4.3,2.22,4.3,4.92s-1.92,4.93-4.3,4.93h-6.37L103.15,207s-3.11,4.21-4.71,4.66-19.93,2.5-25.61,0c0,0-2.78-.8-4.94-5-1.68-3.21-5.2-9.78-6.78-12.73H56.32c-2.36,0-4.27-2.21-4.27-4.93S54,184.12,56.32,184.12Z"/><path class="cls-9" d="M115.93,156.63h-1.16a26,26,0,0,1-3,1.44L109,159.16l-2.92.44a27.23,27.23,0,0,1-3.84.28,26.52,26.52,0,0,1-3.34-.23A33.15,33.15,0,0,1,92.65,158c-.55-.21-1.08-.45-1.61-.71a.76.76,0,0,1-.22-.1,3.73,3.73,0,0,0-1.75-.59H85.78a3.42,3.42,0,0,0-1.61.47h0A25.09,25.09,0,0,1,72.65,160a24.6,24.6,0,0,1-10.24-2.25,1.11,1.11,0,0,1-.25-.09l-.38-.19-.12-.06a10.87,10.87,0,0,0-2.49-.74H56.32c-2.36,0-4.27,2.21-4.27,4.93s1.91,4.91,4.27,4.91h59.61c2.38,0,4.3-2.19,4.3-4.91S118.31,156.63,115.93,156.63Z"/></g></svg>