<svg xmlns="http://www.w3.org/2000/svg" viewBox="0 0 1517.89 391.92"><defs><style>.cls-1,.cls-3{fill:#fff;}.cls-1,.cls-4,.cls-6{stroke:#044d89;stroke-miterlimit:10;}.cls-1,.cls-4{stroke-width:3px;}.cls-2{fill:#044d89;}.cls-10,.cls-3,.cls-5,.cls-6,.cls-7,.cls-8,.cls-9{fill-rule:evenodd;}.cls-3{opacity:0.34;}.cls-4,.cls-6{fill:#f9f7f2;}.cls-5{fill:#70c5fe;}.cls-6{stroke-width:0.25px;}.cls-7{fill:#1758d9;}.cls-8{fill:#1992fc;}.cls-11,.cls-9{fill:#1672f1;}.cls-10{fill:#01bafb;}</style></defs><g id="Layer_1" data-name="Layer 1"><path class="cls-1" d="M765.18,25.25H710.93a15.35,15.35,0,0,0-15.61,15l0,.31v197.9c0,28.92-2.57,37.95-3.67,40.49l-.18.44c-2,5.05-5.6,9-11.29,12.26a43.85,43.85,0,0,1-22.9,6.06c-15,0-25.11-5.57-31.73-17.52-1.3-3.32-3.28-11.79-3.28-32.64V43.07a23.52,23.52,0,0,0-1-7.21,15.27,15.27,0,0,0-12.79-10.52l-.72-.09h-58l-.94.15c-5.63.91-12.2,5.69-12.2,16.16V230.75c0,39.93,4.31,68.31,13.2,86.74,8.28,18.91,22.53,34.37,42.36,46,19.51,12.27,42,18.49,66.73,18.49,19.72,0,37.08-3.39,51.6-10.08,15-6.23,28.61-16,40.59-29s19.91-27,23.58-40.76c4.4-15.05,6.53-38.4,6.53-71.36v-189A16.18,16.18,0,0,0,765.18,25.25Z"/><path class="cls-1" d="M1018.31,290.08l-.69-.08H925L1031.87,47.19a15.33,15.33,0,0,0-.38-14c-3.51-6.24-10-7.55-11.86-7.8l-.78-.1H836.58c-14.82,0-20.94,9-21.66,16.64l-.06.55V93l.06.59c.27,2.66,2.59,15.92,22.09,15.92h77.54L807.82,350.22l-.24.87a16.39,16.39,0,0,0,2.6,14.38c5.65,7.38,15.45,7.38,18.68,7.38H1011.1c20,0,23.41-12.39,24-16.19l.13-.85,0-44.36C1035.17,297.13,1026.07,291,1018.31,290.08Z"/><path class="cls-1" d="M500.1,289.57l-.46,0H422.76V50.14c0-19.68-12.47-25.2-16.29-26.43l-1.76-.56H358c-10.19.32-21.16,7.66-21.16,23.06V354.34l0,.51c.68,7.81,6.75,15.69,18.63,15.7l142.79,1.84c9.5,0,14.91-6.91,15.33-13.72l0-.38V306.11C513.65,295.46,506.62,290.07,500.1,289.57Z"/><path class="cls-2" d="M1504.25,326.13a5.69,5.69,0,0,0-3.52-3.9,10.11,10.11,0,0,0-6.15-.12,10.82,10.82,0,0,0-6,4.14,87.63,87.63,0,0,1-5.4,8.8,50.22,50.22,0,0,1-6.92,8,115.46,115.46,0,0,1-9,8.29q-3.76,3-5,3.27-.5-1.26.88-7.42t3.65-13.69a119.31,119.31,0,0,1,4.65-13.7q2.88-7.15,6.15-15.2c.34-.83.76-2,1.26-3.39s.92-2.55,1.25-3.39q1.26-3.76-3.14-5.91a20.89,20.89,0,0,0-10.17-1.88,26.13,26.13,0,0,0-5.15-10.43q-3.64-4.39-10.43-4.9a36.87,36.87,0,0,0-17.59,4.27,66.84,66.84,0,0,0-17,12.31,89.87,89.87,0,0,0-14.07,18.1,84.33,84.33,0,0,0-8.38,18.81c-.28.45-.55.88-.79,1.29-.5.84-.59,1.09-.25.75q-2.27,3.53-4.78,6.91a42.32,42.32,0,0,1-5.53,6.16q-10,10.8-13.82,11.31-1-1,.51-7.17t4-13.69q1.5-5,3.51-10.18t4-10.42q1.76-4.28,3.39-8.42c1.08-2.77,2.13-5.57,3.14-8.42q.75-1.5-2.89-2.76a38.37,38.37,0,0,0-8.42-1.76,41.33,41.33,0,0,0-9.17,0c-2.93.34-4.74,1-5.4,2l-.25.75-1.26,2.77v-.26c-.84,2-1.88,4.4-3.14,7.17s-2.51,5.61-3.77,8.54-2.47,5.9-3.64,8.92a78.12,78.12,0,0,0-2.77,8.29c-.08.32-.14.65-.22,1-.83,1.33-1.72,2.69-2.67,4.06a49.66,49.66,0,0,1-6.91,8,115.46,115.46,0,0,1-9,8.29c-2.52,2-4.19,3.1-5,3.27-.34-.84,0-3.31.88-7.42s2.14-8.67,3.64-13.69q1.51-5,3.65-10.68t4.65-11.69l4-10.05v-1.76q9.54-25.11,19.35-49.24t21.1-50c1.17-2.84.63-4.9-1.63-6.15a18.28,18.28,0,0,0-8.92-1.89,35,35,0,0,0-9.42,1.38q-4.9,1.4-6.91,4.15-9.55,21.1-17.59,41.08t-15.33,38.82a7.16,7.16,0,0,0-3.77-2.26c-1.17-.16-2.68-.33-4.52-.5h-.25a36.87,36.87,0,0,0-17.59,4.27,66.84,66.84,0,0,0-17,12.31,90.27,90.27,0,0,0-14.08,18.1,84.49,84.49,0,0,0-8.9,20.68c-1.72,2.52-3.5,5-5.42,7.46a77.48,77.48,0,0,1-8.67,9.42,52.83,52.83,0,0,1-9,6.79,17.91,17.91,0,0,1-9,2.63q-6.29,0-8.79-4.75,14.82-9.78,23.87-20.54a109,109,0,0,0,15.08-23.55,65.26,65.26,0,0,0,2.51-7.64,35.66,35.66,0,0,0,1.26-9.4,19.34,19.34,0,0,0-3.15-11.14q-3.13-4.63-11.18-4.64a33.24,33.24,0,0,0-16.71,4.52,64.75,64.75,0,0,0-14.45,11.31,83.59,83.59,0,0,0-11.43,14.95,97.63,97.63,0,0,0-7.66,15.45,71.08,71.08,0,0,0-2.92,9,66.6,66.6,0,0,1-4.49,6.83,122,122,0,0,1-8.42,10.17,90.17,90.17,0,0,1-8.79,8.42c-2.85,2.35-5.12,3.6-6.79,3.77q-.75-.26-.75-7.29a99.13,99.13,0,0,1,1-12.81q1-7.54,2.64-15.58t3.52-16.08q1.89-8,3.39-14.58l3.27-13.82q.24-2.26-3.39-3a28.24,28.24,0,0,0-8.55-.25,54.53,54.53,0,0,0-9.67,1.88q-4.78,1.38-6.53,3.14l-11.31,19.1-11.56,19.85q1.75-7.79,3.39-15.08t3.39-13.57v-.25a.77.77,0,0,1,.25-.5v.75q1.26-4-.37-5.15t-6.16-.63a23.82,23.82,0,0,0-5.4.76,28,28,0,0,0-5.91,2.13,49.63,49.63,0,0,0-5,2.89,6.44,6.44,0,0,0-2.76,3l.25-1.26q-5,8.55-9.43,16.34T1086,324.74q1.76-9.8,3.64-19.22a146.4,146.4,0,0,1,4.65-17.71c-.51-.67-2-1.05-4.53-1.13a48,48,0,0,0-8.29.5,58.17,58.17,0,0,0-8.67,1.88q-4.14,1.26-5.65,3c-1,2-2.3,4.36-3.89,7s-3.23,5.45-4.9,8.3-3.31,5.65-4.9,8.41l-1.37,2.37h0a100.62,100.62,0,0,0-5.82,12.41c-.39,1.34-.77,2.76-1.11,4.32-.08.38-.12.72-.16,1.07,0,.54,0,.6,0,.27a4.73,4.73,0,0,0,.59,3.06c-.34,1.67.08,2.64,1.26,2.89a18.69,18.69,0,0,0,3.89.37,18.83,18.83,0,0,1,3.9.38c1.17.25,1.67,1.22,1.5,2.89l-3.77,20.1a4.71,4.71,0,0,0,2.14,4.78,19.85,19.85,0,0,0,6.53,3.14,37.41,37.41,0,0,0,8.17,1.38,18.14,18.14,0,0,0,7-.75,5.38,5.38,0,0,1,.12-.88,7.38,7.38,0,0,0,.13-1.39l14.82-25.12-2.51,12.81a5.83,5.83,0,0,0,2.39,4.53,18.72,18.72,0,0,0,5.9,3.26,31.08,31.08,0,0,0,7.29,1.64,18.16,18.16,0,0,0,6.53-.38q5.77-10.31,11.94-20T1135,330.27q-1,6-1.63,11.69a100.83,100.83,0,0,0-.63,11.18,66.11,66.11,0,0,0,.88,11.18,24.5,24.5,0,0,0,3.14,8.79,16,16,0,0,0,5.91,5.66,17.19,17.19,0,0,0,9.17,1.76q7.53,0,15.33-5.28a98.74,98.74,0,0,0,15-12.56c2-2.08,4-4.21,5.82-6.38a26.17,26.17,0,0,0,6,10.77q7.41,7.92,23.25,7.67a33.93,33.93,0,0,0,15.7-3.95,68.62,68.62,0,0,0,14.45-10.05c1.83-1.65,3.6-3.39,5.33-5.2a30.54,30.54,0,0,0,4.22,11.66q4.77,7.53,17.33,7a27.21,27.21,0,0,0,13.57-4.15,43.59,43.59,0,0,0,10.81-9.42,19.92,19.92,0,0,0,6.15,9.8q4.4,3.76,13,3.51,6.52-.25,15.07-6.78a126.15,126.15,0,0,0,11.31-9.87,25.25,25.25,0,0,0,4,10.37q4.52,6.54,15.83,6.28,6.52-.25,14.95-6.53a97.53,97.53,0,0,0,13-11.87,30.56,30.56,0,0,0,4.21,11.62q4.77,7.53,17.34,7A27.24,27.24,0,0,0,1427,370.1a43.72,43.72,0,0,0,10.8-9.42,19.87,19.87,0,0,0,6.16,9.8q4.4,3.76,12.94,3.51,6.52-.25,15.07-6.78a135.79,135.79,0,0,0,17.34-16.08,54.69,54.69,0,0,0,4.15-5.4c1.42-2.1,2.8-4.06,4.14-5.91a75.55,75.55,0,0,1,5-6.78C1504.29,330.36,1504.84,328.05,1504.25,326.13Zm-292,5.77c.41-1.58.79-3,1.13-4.14V328q1.24-3.25,3.89-8.92a97.89,97.89,0,0,1,6.16-11.18,55.77,55.77,0,0,1,7.54-9.55c2.67-2.68,5.36-4.1,8-4.27q.49,0,.12,1.38a23.11,23.11,0,0,1-1.13,3.14c-.5,1.18-1,2.35-1.63,3.52a20.61,20.61,0,0,0-1.13,2.51,75.18,75.18,0,0,1-9.8,17.72,82.6,82.6,0,0,1-14.07,13.94A32.86,32.86,0,0,1,1212.28,331.9Zm94.85-19.22q-2.51,7.29-4.77,14.33v-.26a94.93,94.93,0,0,1-10.81,19.48q-6,8.16-12.56,8.42c-.84,0-1.43-.51-1.76-1.51a12,12,0,0,1-.5-3.77,26.87,26.87,0,0,1,.5-4.78q.49-2.76,1.13-5.27c.42-1.68.79-3.18,1.13-4.53s.59-2.26.76-2.76a62.65,62.65,0,0,1,4.77-14.2,72.55,72.55,0,0,1,7.16-12.18,41.27,41.27,0,0,1,8-8.42c2.77-2.09,5.32-3.06,7.67-2.89a3.8,3.8,0,0,1,3.14,1.88,8.22,8.22,0,0,1,.88,3.9Q1309.65,305.4,1307.13,312.68Zm141.21-5q-1.5,4.77-3.39,9.8c-1.25,3.35-2.39,6.53-3.39,9.55v-.26a94.92,94.92,0,0,1-10.8,19.48q-6,8.16-12.57,8.42c-.84,0-1.42-.51-1.76-1.51a12,12,0,0,1-.5-3.77,26.87,26.87,0,0,1,.5-4.78c.34-1.84.71-3.6,1.13-5.27s.8-3.18,1.13-4.53.59-2.26.76-2.76a62.65,62.65,0,0,1,4.77-14.2,73.23,73.23,0,0,1,7.16-12.18,41.27,41.27,0,0,1,8-8.42c2.77-2.09,5.32-3.06,7.67-2.89a3.27,3.27,0,0,1,2.64,1.38,5.48,5.48,0,0,1,.62,2.64A23.86,23.86,0,0,1,1448.34,307.66Z"/><path class="cls-3" d="M293.28,136.08a24,24,0,0,0-.92-5.27,14,14,0,0,0-.52-1.46,13.06,13.06,0,0,0-.54-1.43,23.7,23.7,0,0,0-2.67-4.63c-.22-.29-.45-.56-.69-.83l.23-.37a23.14,23.14,0,0,0,1.36-2.73,13.77,13.77,0,0,0,.6-1.7,15.29,15.29,0,0,0,.63-1.68,24.28,24.28,0,0,0,.71-2.94,22.88,22.88,0,0,0,.34-3.07,14.38,14.38,0,0,0,0-1.74,15.25,15.25,0,0,0,0-1.79,24.9,24.9,0,0,0-.34-3.06,25.36,25.36,0,0,0-.7-2.89,15.67,15.67,0,0,0-.64-1.7,13.77,13.77,0,0,0-.6-1.7,25.34,25.34,0,0,0-1.35-2.71,24.43,24.43,0,0,0-1.67-2.52,14,14,0,0,0-1.18-1.37,13.35,13.35,0,0,0-1.13-1.38,24,24,0,0,0-4.63-3.89,12.8,12.8,0,0,0-1.57-.88,13.16,13.16,0,0,0-1.58-.94,23.25,23.25,0,0,0-2.76-1.2,25.42,25.42,0,0,0-2.86-.85h-.06a40.51,40.51,0,0,0,.41-5.71,41.39,41.39,0,0,0-.44-6,14,14,0,0,0-1.42-4.42,13.88,13.88,0,0,0-1-4.51,39.19,39.19,0,0,0-2.62-5.42,40.35,40.35,0,0,0-3.38-5,13.73,13.73,0,0,0-3.43-3.09,13.75,13.75,0,0,0-3.09-3.43,41.06,41.06,0,0,0-4.94-3.37l-1-.55a41.77,41.77,0,0,0-4.45-2.08,13.93,13.93,0,0,0-4.52-1,14.18,14.18,0,0,0-4.41-1.43c-.34,0-.68-.07-1-.11-.11-.45-.24-.9-.39-1.33a13.72,13.72,0,0,0-.73-2.53A23.69,23.69,0,0,0,231,25.58a14.41,14.41,0,0,0-1.83-1.91,13.53,13.53,0,0,0-1.89-1.81,23.42,23.42,0,0,0-2.8-1.91l-.57-.32a22.23,22.23,0,0,0-2.53-1.17,13.33,13.33,0,0,0-2.49-.73,14,14,0,0,0-2.59-.63,22.7,22.7,0,0,0-6.72,0,13.59,13.59,0,0,0-2,.47A14.69,14.69,0,0,0,206,16a14.69,14.69,0,0,0-1.76-1.67,21.88,21.88,0,0,0-5.49-3.15,13.41,13.41,0,0,0-2.27-.68,15.3,15.3,0,0,0-2.38-.57,22,22,0,0,0-3.13-.23,20.62,20.62,0,0,0-3.13.24,14.23,14.23,0,0,0-2.38.56,14.06,14.06,0,0,0-2.3.69,21.63,21.63,0,0,0-2.88,1.39A21,21,0,0,0,178,14.05l-.44-.31c-.41-.26-.84-.51-1.27-.73a12.71,12.71,0,0,0-1.25-.72,20.66,20.66,0,0,0-2.43-1.07,19.87,19.87,0,0,0-2.63-.78,14.27,14.27,0,0,0-1.43-.25A14.87,14.87,0,0,0,167,9.93a21.37,21.37,0,0,0-5.22,0,13.07,13.07,0,0,0-1.52.27,12,12,0,0,0-1.42.24,19.89,19.89,0,0,0-2.58.76,21.31,21.31,0,0,0-2.49,1.09,12,12,0,0,0-1.25.73,13,13,0,0,0-1.19.68c-.39.24-.77.51-1.1.76l-.55.45a12.61,12.61,0,0,0-1,.94A51.46,51.46,0,0,0,78.53,33.16h-.41A42.34,42.34,0,0,0,35.83,75.45a39.65,39.65,0,0,0,.35,5.33,51.45,51.45,0,0,0-12.44,68h0l.17.27c.11.18.23.35.35.52a16.79,16.79,0,0,0,1.93,2.26,41.88,41.88,0,0,0-.2,37.45l.39.75a42.78,42.78,0,0,0,14.79,16.33,50.58,50.58,0,0,0-.62,7.86,51.65,51.65,0,0,0,63.93,50.25,18.27,18.27,0,0,0,4.17,5,12.34,12.34,0,0,0,1.48,1.1,41.87,41.87,0,0,0,48.38-2l.17.13.15.11a38.36,38.36,0,0,0,3.75,2.51,43,43,0,0,0,5.84,2.82,13.86,13.86,0,0,0,4.86,1,14.09,14.09,0,0,0,4.71,1.58,43.64,43.64,0,0,0,12.91,0,14.11,14.11,0,0,0,4.7-1.58,13.86,13.86,0,0,0,4.86-1,44.05,44.05,0,0,0,5.83-2.81,44.5,44.5,0,0,0,5.37-3.65,14.22,14.22,0,0,0,3.27-3.72,13.93,13.93,0,0,0,3.72-3.28,43.07,43.07,0,0,0,3.64-5.35,44.07,44.07,0,0,0,2.82-5.83,14.05,14.05,0,0,0,.92-3.92c0-.32.05-.63.06-.95a14,14,0,0,0,1.59-4.71,45,45,0,0,0,.47-6.45c0-.4,0-.81,0-1.22l.26,0a14.26,14.26,0,0,0,3.84,0,35.77,35.77,0,0,0,4.86-1.07,34.51,34.51,0,0,0,4.63-1.77,13.69,13.69,0,0,0,3.21-2.07,13.87,13.87,0,0,0,3.31-1.94,32.53,32.53,0,0,0,3.68-3.37,34.74,34.74,0,0,0,3.14-3.85,14.1,14.1,0,0,0,1.73-3.39,14,14,0,0,0,1.9-3.34,33.48,33.48,0,0,0,1.5-4.74,34.15,34.15,0,0,0,.79-4.91,13.77,13.77,0,0,0-.13-3.28,13.9,13.9,0,0,0,3.34-.85,32.48,32.48,0,0,0,4.16-2,31.42,31.42,0,0,0,3.78-2.57,14.28,14.28,0,0,0,2.46-2.52c.17-.13.33-.29.49-.43a10.4,10.4,0,0,0,.87-.75,14.1,14.1,0,0,0,1.16-1.28,31.16,31.16,0,0,0,2.57-3.79,30.26,30.26,0,0,0,2-4.13,13.53,13.53,0,0,0,.88-3.43,14.06,14.06,0,0,0,.95-3.39,31,31,0,0,0,0-9.15,14.26,14.26,0,0,0-.95-3.4,14.2,14.2,0,0,0-.61-2.6c.2-.12.41-.23.61-.36a24.39,24.39,0,0,0,4.1-3.43,14.67,14.67,0,0,0,1-1.2c.34-.37.66-.76,1-1.17a23.7,23.7,0,0,0,2.67-4.63,13.06,13.06,0,0,0,.54-1.43,14,14,0,0,0,.52-1.46,24,24,0,0,0,.92-5.27,59.3,59.3,0,0,0,0-3.08Z"/><path class="cls-3" d="M286.25,136.66a22.8,22.8,0,0,0-.88-5,13.29,13.29,0,0,0-.49-1.38,11.79,11.79,0,0,0-.51-1.36,23,23,0,0,0-2.53-4.38c-.2-.28-.43-.53-.65-.79l.22-.35a22.11,22.11,0,0,0,1.28-2.58,12,12,0,0,0,.57-1.62,13.56,13.56,0,0,0,.6-1.58,21.86,21.86,0,0,0,.67-2.79,23.78,23.78,0,0,0,.33-2.91,15.1,15.1,0,0,0,0-1.65,13.55,13.55,0,0,0,0-1.69,24.3,24.3,0,0,0-.33-2.9,25.42,25.42,0,0,0-.66-2.74,13.91,13.91,0,0,0-.61-1.6,12,12,0,0,0-.57-1.62,22.59,22.59,0,0,0-1.27-2.56,26.67,26.67,0,0,0-1.58-2.39,12.63,12.63,0,0,0-1.12-1.29,12.11,12.11,0,0,0-1.07-1.32,24.21,24.21,0,0,0-2.08-2,21.9,21.9,0,0,0-2.31-1.71,12.81,12.81,0,0,0-1.49-.83,13,13,0,0,0-1.49-.89,23.91,23.91,0,0,0-2.61-1.13,22.12,22.12,0,0,0-2.71-.81h-.06a39.26,39.26,0,0,0,.39-5.41,38.4,38.4,0,0,0-.42-5.66,13.12,13.12,0,0,0-1.35-4.19,13.18,13.18,0,0,0-.91-4.27,39.08,39.08,0,0,0-2.48-5.13,38.06,38.06,0,0,0-3.21-4.72,13,13,0,0,0-3.24-2.93,13.24,13.24,0,0,0-2.93-3.25,39.78,39.78,0,0,0-4.68-3.18l-.94-.53a40.33,40.33,0,0,0-4.22-2,13.23,13.23,0,0,0-4.28-.91,13.09,13.09,0,0,0-4.17-1.35c-.32,0-.65-.07-1-.11a13.07,13.07,0,0,0-.37-1.26,12.37,12.37,0,0,0-.7-2.4A20.52,20.52,0,0,0,229,34.64,21.54,21.54,0,0,0,227.23,32a13.07,13.07,0,0,0-1.74-1.82,13.75,13.75,0,0,0-1.78-1.71,23.06,23.06,0,0,0-2.66-1.81l-.54-.3a22.42,22.42,0,0,0-2.39-1.11,12.79,12.79,0,0,0-2.37-.69,13.92,13.92,0,0,0-2.45-.6,22.1,22.1,0,0,0-6.36,0,13.37,13.37,0,0,0-1.94.45,14.14,14.14,0,0,0-1.46-1.53,13.13,13.13,0,0,0-1.67-1.57,21.76,21.76,0,0,0-2.49-1.7,20.28,20.28,0,0,0-2.7-1.3,14.2,14.2,0,0,0-2.15-.63,13.06,13.06,0,0,0-2.26-.54,20.09,20.09,0,0,0-5.93,0,13,13,0,0,0-2.25.54,13.51,13.51,0,0,0-2.18.64,21.19,21.19,0,0,0-2.72,1.32,20.3,20.3,0,0,0-2.13,1.43l-.42-.29c-.39-.25-.8-.48-1.21-.69s-.77-.47-1.18-.69a22,22,0,0,0-2.3-1,21.52,21.52,0,0,0-2.49-.73q-.68-.15-1.35-.24a13.52,13.52,0,0,0-1.44-.25A20.47,20.47,0,0,0,164.2,17a20.72,20.72,0,0,0-2.47.15,13.52,13.52,0,0,0-1.44.25,12.56,12.56,0,0,0-1.34.24,19.47,19.47,0,0,0-2.45.72,20.57,20.57,0,0,0-2.35,1c-.41.22-.81.45-1.19.7a11.61,11.61,0,0,0-1.13.64c-.36.23-.72.49-1,.73s-.36.28-.53.42c-.33.28-.64.58-.94.89A48.72,48.72,0,0,0,82.87,39.19h-.39A40.1,40.1,0,0,0,42.43,79.24a38.81,38.81,0,0,0,.33,5.05A48.76,48.76,0,0,0,31,148.69h0l.17.26c.1.16.21.32.32.48a15.23,15.23,0,0,0,1.84,2.15A39.57,39.57,0,0,0,33.12,187c.12.24.24.48.37.72a40.57,40.57,0,0,0,14,15.46,47.64,47.64,0,0,0-.59,7.44,49,49,0,0,0,49,49,48.11,48.11,0,0,0,11.55-1.4,17.72,17.72,0,0,0,4,4.72,14.51,14.51,0,0,0,1.4,1,39.67,39.67,0,0,0,45.83-1.92l.16.13.14.1a34.89,34.89,0,0,0,3.55,2.38,40.82,40.82,0,0,0,5.53,2.67,12.84,12.84,0,0,0,4.61.92,13.17,13.17,0,0,0,4.45,1.51,41.77,41.77,0,0,0,12.23,0,13.17,13.17,0,0,0,4.45-1.51,12.92,12.92,0,0,0,4.61-.92,41.74,41.74,0,0,0,5.51-2.66,42.19,42.19,0,0,0,5.09-3.46,13.37,13.37,0,0,0,3.09-3.52,13.47,13.47,0,0,0,3.53-3.1,42,42,0,0,0,6.12-10.6,12.82,12.82,0,0,0,.86-3.71c0-.3.06-.6.06-.9a13.15,13.15,0,0,0,1.51-4.46,43.06,43.06,0,0,0,.45-6.1c0-.39,0-.78,0-1.16l.25,0a12.47,12.47,0,0,0,1.73.12,13.75,13.75,0,0,0,1.91-.14,31.74,31.74,0,0,0,4.6-1A33.63,33.63,0,0,0,237.4,225a13.34,13.34,0,0,0,3-2,13.77,13.77,0,0,0,3.13-1.83,32.06,32.06,0,0,0,6.46-6.84,13.35,13.35,0,0,0,1.64-3.21,13.28,13.28,0,0,0,1.8-3.16,32.19,32.19,0,0,0,1.42-4.5,33.22,33.22,0,0,0,.75-4.64,13.4,13.4,0,0,0-.12-3.11,13.16,13.16,0,0,0,3.15-.81,29.86,29.86,0,0,0,3.95-1.91,29.13,29.13,0,0,0,3.57-2.43,13.22,13.22,0,0,0,2.34-2.39c.16-.12.31-.27.46-.4s.57-.46.83-.72a14,14,0,0,0,1.09-1.21,29.85,29.85,0,0,0,2.44-3.59,28.76,28.76,0,0,0,1.89-3.91,13,13,0,0,0,.83-3.25,12.72,12.72,0,0,0,.9-3.21,29.46,29.46,0,0,0,0-8.66,12.8,12.8,0,0,0-.9-3.22,13.57,13.57,0,0,0-.57-2.47l.58-.34a22.61,22.61,0,0,0,3.87-3.25,12.87,12.87,0,0,0,1-1.13,12.31,12.31,0,0,0,.92-1.11,23.3,23.3,0,0,0,2.53-4.38,11.79,11.79,0,0,0,.51-1.36,13.29,13.29,0,0,0,.49-1.38,22.78,22.78,0,0,0,.88-5,14,14,0,0,0,0-1.45A14.24,14.24,0,0,0,286.25,136.66Z"/><path class="cls-4" d="M150.53,34.48A38,38,0,0,0,87.32,46.71a.87.87,0,0,0-.08.14A2.2,2.2,0,0,1,85,48.13h0A28.57,28.57,0,0,0,49.33,75.87a28,28,0,0,0,1.78,9.76h0s1.13,1.84-1.21,3.16l0,0A38.18,38.18,0,0,0,29.3,122.63,37.69,37.69,0,0,0,35,142.56l0,.06,0,0c.32.47,1.79,2.12,5-.11a4,4,0,0,1,.69-.39,33.28,33.28,0,0,1,17.13-4.74,5,5,0,0,1,0,9.92,23.55,23.55,0,0,0-15.38,5.72,28.52,28.52,0,0,0,13.16,46.66h0a1.7,1.7,0,0,1,1.15,2.42.75.75,0,0,0,0,.2,37.52,37.52,0,0,0-2.69,13.8,38.25,38.25,0,0,0,38.17,38.17,37.71,37.71,0,0,0,15.89-3.52h0c10.64-5.54,18.18-16.26,18.18-29.06a5,5,0,1,1,9.92,0,43.06,43.06,0,0,1-18.93,35.63h0s-2,1.59.62,3.85a28.31,28.31,0,0,0,33.1-1.67,8.31,8.31,0,0,0,2.33-4V44A16,16,0,0,0,150.53,34.48Zm-85.6,94.14a23.15,23.15,0,0,1,3.94-10h0a3.51,3.51,0,0,0-.85-4.92l0,0A23.3,23.3,0,0,1,82.76,72.5h.31a4.58,4.58,0,0,0,2.1-.57,2.41,2.41,0,0,0,1-1.71,29.25,29.25,0,1,1,27.9,38,5,5,0,0,1,0-9.92A19.34,19.34,0,1,0,94.69,79,5,5,0,0,1,86.88,83a13.43,13.43,0,1,0-3.83,26.29c.11,0,.21,0,.32,0l.47,0a4.37,4.37,0,0,1,.52.12l.39.12a4,4,0,0,1,.51.23,3.9,3.9,0,0,1,.35.19,3.41,3.41,0,0,1,.44.3,3,3,0,0,1,.33.28,4.08,4.08,0,0,1,.36.36c.1.11.2.23.29.35a3,3,0,0,1,.27.42c.08.13.15.26.22.4a4.34,4.34,0,0,1,.2.5,2.77,2.77,0,0,1,.1.26,1.13,1.13,0,0,1,0,.18,3.86,3.86,0,0,1,.09.49,4.57,4.57,0,0,1,0,.52c0,.06,0,.11,0,.16a2.23,2.23,0,0,1,0,.27,5.29,5.29,0,0,1,0,.56c0,.15-.07.29-.1.44s-.09.32-.15.47-.12.3-.19.44a3.3,3.3,0,0,1-.23.41,3.51,3.51,0,0,1-.27.4c-.1.12-.19.25-.3.36a3.51,3.51,0,0,1-.34.33l-.37.31c-.13.1-.27.18-.41.27l-.41.22-.49.19c-.1,0-.18.08-.27.11a13.46,13.46,0,1,0,11.7,23.74,5,5,0,1,1,5.92,8,23.37,23.37,0,0,1-37.09-22.12Zm78.62,28.44a23.35,23.35,0,0,1-5.76,6.31h0s-2.18,1.38-1,4.82h0a23.26,23.26,0,0,1-25.26,32v0c-4.55-1.18-5.35,2.63-5.35,2.63h0a23.33,23.33,0,0,1-17,16.2,5,5,0,0,1-6-3.69,5,5,0,0,1,3.69-6,13.45,13.45,0,0,0,4-24.54,13.47,13.47,0,0,0-14.63.31A5,5,0,0,1,70.61,177a23.33,23.33,0,0,1,32.79,6.72A13.45,13.45,0,1,0,123.94,167a4.9,4.9,0,0,1,.69-8,4.86,4.86,0,0,1,2.13-1.12,13.47,13.47,0,0,0,10-16.18,13.45,13.45,0,0,0-20.64-8.06,5,5,0,0,1-5.58-8.21,23.38,23.38,0,0,1,33,31.66Z"/><path class="cls-5" d="M210.52,80.06a21.3,21.3,0,0,0,.88,3.27l-4.54,2.61a27,27,0,0,0,4,6.93l4.54-2.63a21.66,21.66,0,0,0,2.39,2.4l-2.62,4.54a26.72,26.72,0,0,0,3.31,2.25l.63.35a26.78,26.78,0,0,0,3,1.39l2.62-4.53a22.14,22.14,0,0,0,3.27.87v5.24a27.66,27.66,0,0,0,8,0V97.51a22.14,22.14,0,0,0,3.27-.87l2.62,4.53a27.79,27.79,0,0,0,3-1.39l.62-.35a26.72,26.72,0,0,0,3.31-2.25l-2.62-4.54a21.66,21.66,0,0,0,2.39-2.4l4.54,2.63a27,27,0,0,0,4-6.93l-4.54-2.61a21.3,21.3,0,0,0,.88-3.27h5.24a27.73,27.73,0,0,0,0-8h-5.24a21.3,21.3,0,0,0-.88-3.27l4.54-2.62a27.67,27.67,0,0,0-1.74-3.6,26.9,26.9,0,0,0-2.26-3.32l-4.54,2.62a22.47,22.47,0,0,0-2.39-2.39l2.62-4.54a26.72,26.72,0,0,0-3.31-2.25l-.62-.35a27.87,27.87,0,0,0-3-1.4l-2.62,4.54A21,21,0,0,0,236,54.6V49.36a27.66,27.66,0,0,0-8,0V54.6a22.17,22.17,0,0,0-3.27.88l-2.62-4.54a26.86,26.86,0,0,0-3,1.4l-.63.35a26.72,26.72,0,0,0-3.31,2.25l2.62,4.54a22.47,22.47,0,0,0-2.39,2.39l-4.54-2.62a26.9,26.9,0,0,0-2.26,3.32,27.67,27.67,0,0,0-1.74,3.6l4.53,2.62a22.48,22.48,0,0,0-.87,3.27h-5.24a27.73,27.73,0,0,0,0,8Zm34.32-9.38h0a5.38,5.38,0,0,1,0,10.75h0a5.38,5.38,0,0,1,0-10.75ZM232,57.81a5.38,5.38,0,1,1-5.38,5.38A5.38,5.38,0,0,1,232,57.81Zm3.59,18.25a3.6,3.6,0,1,1-3.59-3.6A3.59,3.59,0,0,1,235.57,76.06ZM232,83.55a5.38,5.38,0,1,1-5.38,5.38A5.38,5.38,0,0,1,232,83.55ZM219.11,70.68a5.38,5.38,0,1,1-5.38,5.38A5.38,5.38,0,0,1,219.11,70.68Z"/><path class="cls-6" d="M253.79,123.2a23.17,23.17,0,0,0-2.82-3.89L246.33,122c-.24-.24-.5-.47-.76-.7a17.31,17.31,0,0,0-1.53-1.18,17.5,17.5,0,0,0-4.39-2.19l-.74-.22v-5.35a23.05,23.05,0,0,0-9.55,0v5.35l-.74.22a17.5,17.5,0,0,0-4.39,2.19,14.8,14.8,0,0,0-1.53,1.18c-.27.23-.52.46-.77.7l-4.63-2.68a23.17,23.17,0,0,0-2.82,3.89,22.66,22.66,0,0,0-1.95,4.38l4.62,2.68a17.92,17.92,0,0,0,0,8.57l-4.62,2.68a22.66,22.66,0,0,0,1.95,4.38,23.17,23.17,0,0,0,2.82,3.89l4.63-2.68c.25.24.5.47.77.7a16.34,16.34,0,0,0,1.53,1.18,17.85,17.85,0,0,0,4.39,2.19l.74.22v5.35a23.05,23.05,0,0,0,9.55,0v-5.35l.74-.22A17.85,17.85,0,0,0,244,149c.53-.37,1-.76,1.53-1.18.26-.23.52-.46.76-.7l4.64,2.68a23.17,23.17,0,0,0,2.82-3.89,22.66,22.66,0,0,0,2-4.38l-4.63-2.68a17.59,17.59,0,0,0,0-8.57l4.63-2.68A22.66,22.66,0,0,0,253.79,123.2Zm-10.52,4.29a1.54,1.54,0,0,1,.77-.21,1.56,1.56,0,0,1,1.34.77,1.67,1.67,0,0,1,.19.57,1.41,1.41,0,0,1,0,.41,1.51,1.51,0,0,1-.76,1.13,1.54,1.54,0,0,1-.77.21,1.54,1.54,0,0,1-.77-2.88Zm-9.14-5.93a1.55,1.55,0,1,1-1.54,1.54A1.54,1.54,0,0,1,234.13,121.56Zm-6,2.14a.92.92,0,0,1,.45-.12.94.94,0,0,1,.82.49.94.94,0,0,1-.82,1.39.94.94,0,0,1-.82-.49A.93.93,0,0,1,228.17,123.7Zm-6.3,11.06a1,1,0,0,1,.37-1.28,1.07,1.07,0,0,1,.46-.11.93.93,0,0,1,.82.48,1,1,0,0,1-.37,1.28,1,1,0,0,1-1.28-.37ZM225,141.6a1.57,1.57,0,0,1-.77.21,1.54,1.54,0,0,1-1.34-.77,1.37,1.37,0,0,1-.19-.57,1.41,1.41,0,0,1,0-.41,1.52,1.52,0,0,1,.75-1.13,1.58,1.58,0,0,1,.78-.21,1.54,1.54,0,0,1,.77,2.88Zm.56-12a1.54,1.54,0,0,1-1.33.77,1.58,1.58,0,0,1-.78-.21,1.52,1.52,0,0,1-.75-1.13,1.41,1.41,0,0,1,0-.41,1.33,1.33,0,0,1,.19-.57,1.54,1.54,0,0,1,1.34-.77,1.57,1.57,0,0,1,.77.21A1.54,1.54,0,0,1,225.56,129.6Zm3.1,15.55,0,0a.94.94,0,1,1,0-1.68.91.91,0,0,1,.41.39A.93.93,0,0,1,228.66,145.15Zm5.47,2.38a1.55,1.55,0,1,1,1.55-1.55A1.54,1.54,0,0,1,234.13,147.53Zm0-7.71a5.28,5.28,0,1,1,5.28-5.28A5.27,5.27,0,0,1,234.13,139.82Zm6,5.57a.93.93,0,0,1-1.28-.37.94.94,0,0,1,.37-1.27,1,1,0,0,1,.46-.12.94.94,0,0,1,.45,1.76Zm.41-19.81a.93.93,0,0,1-.86,0,.86.86,0,0,1-.41-.39.94.94,0,0,1,.37-1.28l0,0a.94.94,0,0,1,.86,1.67Zm5.06,14.89a1.74,1.74,0,0,1-.19.57,1.56,1.56,0,0,1-1.34.77,1.55,1.55,0,0,1-1.34-2.32,1.56,1.56,0,0,1,1.34-.77,1.54,1.54,0,0,1,.77.21,1.51,1.51,0,0,1,.76,1.13A1.41,1.41,0,0,1,245.57,140.47Zm.45-4.86a1,1,0,0,1-.45.11.92.92,0,0,1-.82-.49.94.94,0,0,1,.82-1.39.94.94,0,0,1,.45,1.77Z"/><path class="cls-6" d="M244.89,198.89l3.7-1.1a20,20,0,0,0-.64-2.89,19.41,19.41,0,0,0-1-2.76l-3.7,1.1a15.29,15.29,0,0,0-1.31-2.12l2.66-2.81a21.52,21.52,0,0,0-2-2.18,19.29,19.29,0,0,0-2.29-1.87L238,186.68l-.37.39a16.6,16.6,0,0,0-2.2-1.18l.9-3.76a19.83,19.83,0,0,0-5.74-1.37l-.89,3.76-.79,0a16.13,16.13,0,0,0-1.7.09l-1.11-3.7a20.6,20.6,0,0,0-5.65,1.69l1.11,3.7a16.13,16.13,0,0,0-1.75,1l-.38.26-2.8-2.65a19.58,19.58,0,0,0-2.19,2,20.23,20.23,0,0,0-1.86,2.29l2.81,2.65a16.55,16.55,0,0,0-1.19,2.19l-3.76-.89a20.3,20.3,0,0,0-1.36,5.73l3.75.9a16,16,0,0,0,.08,2.49l-3.71,1.11a19.84,19.84,0,0,0,.64,2.88,20.7,20.7,0,0,0,1.05,2.76l3.7-1.1a15.66,15.66,0,0,0,1.31,2.12l-2.65,2.81a20.23,20.23,0,0,0,4.28,4l2.28-2.42.37-.39a15.52,15.52,0,0,0,2.2,1.18l-.9,3.76a19.29,19.29,0,0,0,2.82.9,19.72,19.72,0,0,0,2.92.47l.89-3.76c.26,0,.53,0,.8,0a16.28,16.28,0,0,0,1.7-.09l1.1,3.7a21.34,21.34,0,0,0,2.89-.63,20.7,20.7,0,0,0,2.76-1l-1.11-3.71a14.59,14.59,0,0,0,1.75-1l.38-.27,2.81,2.65a20.3,20.3,0,0,0,2.18-2,20.94,20.94,0,0,0,1.86-2.29l-2.81-2.66a16.55,16.55,0,0,0,1.19-2.19l3.76.89a20.08,20.08,0,0,0,1.36-5.73l-3.75-.89A16.1,16.1,0,0,0,244.89,198.89Zm-24,8.21a4.09,4.09,0,0,1-1.14.17,4,4,0,0,1-1.13-7.76,3.74,3.74,0,0,1,1.13-.17,4,4,0,0,1,1.14,7.76Zm1.44-14.47a4,4,0,1,1,4.94,2.67A4,4,0,0,1,222.37,192.63Zm4,8.72a2.65,2.65,0,0,1,1.78-3.3,2.85,2.85,0,0,1,.76-.11,2.65,2.65,0,0,1,.75,5.19,2.43,2.43,0,0,1-.75.11A2.64,2.64,0,0,1,226.35,201.35Zm6.38,12.13a4,4,0,0,1-4.93-2.66,4,4,0,1,1,4.93,2.66Zm6.38-11.8a4.06,4.06,0,0,1-1.13.16,4,4,0,0,1-1.14-7.76,4.09,4.09,0,0,1,1.14-.17,4,4,0,0,1,1.13,7.77Z"/><path class="cls-6" d="M172.26,49.81a15.31,15.31,0,0,0-.57,3.24l3.51,1a12.43,12.43,0,0,0,.35,2.94,12.05,12.05,0,0,0,1.06,2.76L174,62.31a15.47,15.47,0,0,0,2,2.6A16.19,16.19,0,0,0,178.5,67l1.17-1.13,1.47-1.41.41.23A12.05,12.05,0,0,0,185.33,66a13.88,13.88,0,0,0,1.46.14l.41,1.68.46,1.87c.47,0,.94-.05,1.42-.1a17,17,0,0,0,1.84-.34,15,15,0,0,0,1.93-.62c.4-.15.79-.32,1.16-.5l-.87-3.56a12.35,12.35,0,0,0,1.59-1.08,11.93,11.93,0,0,0,2.64-3l3.52,1a15.06,15.06,0,0,0,1.25-3,16.12,16.12,0,0,0,.58-3.24l-3.52-1a12.37,12.37,0,0,0-.35-2.94,11.68,11.68,0,0,0-1.06-2.77L200.43,46a15.35,15.35,0,0,0-2-2.6,16.28,16.28,0,0,0-2.52-2.12l-1.17,1.13-1.47,1.41-.41-.22a12.28,12.28,0,0,0-5.23-1.42l-.42-1.68-.46-1.87a13.38,13.38,0,0,0-1.41.11,15,15,0,0,0-1.85.34,15.48,15.48,0,0,0-1.93.61c-.4.15-.79.32-1.16.5l.87,3.56a11.47,11.47,0,0,0-1.59,1.09,11.72,11.72,0,0,0-2.64,3l-3.52-1A16.13,16.13,0,0,0,172.26,49.81ZM193,60.38l-.1.07a.64.64,0,0,1-.77-1,.63.63,0,0,1,.77-.07.49.49,0,0,1,.14.11A.65.65,0,0,1,193,60.38ZM194.41,52a.64.64,0,0,1,.91,0,.63.63,0,0,1,0,.9.63.63,0,0,1-.56.16.61.61,0,0,1-.35-.19A.65.65,0,0,1,194.41,52Zm.32,3.31a.92.92,0,0,1,.29,0,1.06,1.06,0,0,1-.29,2.08,1,1,0,0,1-.3-.05,1.06,1.06,0,0,1,.3-2.07Zm-2.61-7.32a1.09,1.09,0,0,1,.73-.29,1.06,1.06,0,1,1,0,2.11,1,1,0,0,1-.76-.32A1.07,1.07,0,0,1,192.12,47.94Zm-6.79,14.12,0,0a.65.65,0,0,1-.91,0,.63.63,0,0,1,0-.9.64.64,0,0,1,.9,0h0A.65.65,0,0,1,185.33,62.06Zm4,.71-.25,0a1,1,0,0,1-1-.8,1.06,1.06,0,0,1,.77-1.28,1.15,1.15,0,0,1,.26,0,1.06,1.06,0,0,1,.25,2.08Zm-.25-16.56,0,0a.65.65,0,0,1,.91,0,.64.64,0,0,1-.93.88h0A.63.63,0,0,1,189.08,46.21Zm-4-.71a1.15,1.15,0,0,1,.26,0,1.06,1.06,0,0,1,.25,2.08,1.06,1.06,0,0,1-1.28-.77A1.05,1.05,0,0,1,185.07,45.5Zm.26,5.54a3.63,3.63,0,0,1,1-.41,3.17,3.17,0,0,1,.86-.11,3.63,3.63,0,0,1,1.88.53,3.56,3.56,0,0,1,1.63,2.22,3.61,3.61,0,0,1-2.64,4.38,3.68,3.68,0,0,1-2.74-.42,3.62,3.62,0,0,1,0-6.19ZM180,56.33a.64.64,0,0,1-.87-.95.66.66,0,0,1,.55-.16.68.68,0,0,1,.36.2A.65.65,0,0,1,180,56.33Zm1.46-8.43.1-.07a.64.64,0,0,1,.78,1,.64.64,0,0,1-.78.08.69.69,0,0,1-.13-.11A.65.65,0,0,1,181.45,47.9Zm.1,10.61a1.06,1.06,0,0,1,.73,1.82,1,1,0,0,1-.73.29,1.05,1.05,0,0,1-.77-.32,1.07,1.07,0,0,1,0-1.5A1.1,1.1,0,0,1,181.55,58.51Zm-2.89-6.85a1,1,0,0,1,1-.76,1,1,0,0,1,.3,0,1.06,1.06,0,0,1-.3,2.07,1,1,0,0,1-.29,0A1.05,1.05,0,0,1,178.66,51.66Z"/><path class="cls-7" d="M260.37,100.2l-2.18-2.6a9.5,9.5,0,0,0-1.05.78,10.17,10.17,0,0,0-.95.9l2.18,2.6a8.47,8.47,0,0,0-.67.79L254.77,101a12.17,12.17,0,0,0-.73,1.09,11.55,11.55,0,0,0-.58,1.17l2.93,1.7a10.13,10.13,0,0,0-.35,1l-3.34-.59a10.39,10.39,0,0,0-.3,1.28,9.59,9.59,0,0,0-.15,1.3l3.33.59c0,.17,0,.34,0,.51s0,.35,0,.52l-3.33.59a9.59,9.59,0,0,0,.15,1.3,10.39,10.39,0,0,0,.3,1.28l3.34-.59a10.13,10.13,0,0,0,.35,1l-2.93,1.69a10.74,10.74,0,0,0,.58,1.18,12.17,12.17,0,0,0,.73,1.09l2.93-1.69a10,10,0,0,0,.67.79l-2.18,2.6a11.68,11.68,0,0,0,.95.9,11,11,0,0,0,1.05.78l2.18-2.6a10,10,0,0,0,.9.52l-1.16,3.18a9.28,9.28,0,0,0,1.2.53,12,12,0,0,0,1.26.37l1.16-3.18q.5.1,1,.18v3.38a9.31,9.31,0,0,0,1.31.08,9.5,9.5,0,0,0,1.31-.08v-3.38c.34,0,.68-.11,1-.18l1.16,3.18a12,12,0,0,0,1.26-.37,9.28,9.28,0,0,0,1.2-.53l-1.16-3.18a10,10,0,0,0,.9-.52l2.18,2.6a11,11,0,0,0,1.05-.78,11.68,11.68,0,0,0,.95-.9l-2.18-2.6a10,10,0,0,0,.67-.79l2.93,1.69a10.35,10.35,0,0,0,.73-1.09,10.74,10.74,0,0,0,.58-1.18l-2.93-1.69a10.13,10.13,0,0,0,.35-1l3.34.59a10.4,10.4,0,0,0,.31-1.28,11.47,11.47,0,0,0,.14-1.3l-3.33-.59c0-.17,0-.34,0-.52s0-.34,0-.51l3.33-.59a11.47,11.47,0,0,0-.14-1.3,10.4,10.4,0,0,0-.31-1.28l-3.34.59a10.13,10.13,0,0,0-.35-1l2.93-1.7a11.55,11.55,0,0,0-.58-1.17,10.35,10.35,0,0,0-.73-1.09l-2.93,1.69a8.47,8.47,0,0,0-.67-.79l2.18-2.6a10.17,10.17,0,0,0-.95-.9,9.5,9.5,0,0,0-1.05-.78l-2.18,2.6a8.08,8.08,0,0,0-.9-.52L272,96.49a10.85,10.85,0,0,0-1.2-.52,12,12,0,0,0-1.26-.37l-1.16,3.18c-.33-.08-.67-.13-1-.18V95.22a9.5,9.5,0,0,0-1.31-.09,9.29,9.29,0,0,0-1.31.09V98.6c-.35.05-.69.1-1,.18l-1.16-3.18a12,12,0,0,0-1.26.37,9.28,9.28,0,0,0-1.2.53l1.16,3.18A8.08,8.08,0,0,0,260.37,100.2Zm5.69,2.47a6.34,6.34,0,1,1-6.34,6.33A6.34,6.34,0,0,1,266.06,102.67Z"/><path class="cls-8" d="M215.54,168.33l-1.65.3a12.08,12.08,0,0,0-.44-1.19l1.46-.84a14.67,14.67,0,0,0-1.6-2.77l-1.46.85a10.67,10.67,0,0,0-.81-1l1.09-1.29a14.56,14.56,0,0,0-2.45-2l-.72.86-.36.42c-.36-.22-.72-.43-1.09-.63l.57-1.58a14.09,14.09,0,0,0-2.24-.88c-.25-.08-.5-.15-.76-.21l-.55,1.51,0,.07c-.4-.09-.82-.16-1.24-.22V158a14,14,0,0,0-1.6-.09,13.86,13.86,0,0,0-1.59.09v1.68c-.42.06-.84.13-1.25.22l0-.07-.55-1.51c-.26.06-.51.13-.76.21a14.09,14.09,0,0,0-2.24.88l.57,1.59a11.84,11.84,0,0,0-1.09.63l-.36-.43-.72-.86a14.56,14.56,0,0,0-2.45,2l1.08,1.29c-.28.31-.55.63-.81,1l-1.46-.85a15.23,15.23,0,0,0-1.6,2.77l1.46.84c-.16.39-.3.78-.43,1.19l-1.66-.3a14.94,14.94,0,0,0-.55,3.15l1.66.29c0,.21,0,.42,0,.63s0,.43,0,.63l-1.66.3a14.74,14.74,0,0,0,.55,3.14l1.66-.29c.13.41.27.8.43,1.19l-1.46.84A14.29,14.29,0,0,0,190,181l1.46-.84c.26.34.53.66.81,1l-1.08,1.29a14.56,14.56,0,0,0,2.45,2.05l.72-.86.36-.43c.35.23.72.44,1.09.64l-.58,1.58a14.59,14.59,0,0,0,2.25.88c.25.08.5.15.76.21l.55-1.51,0-.07c.41.09.83.16,1.25.22v1.68a13.86,13.86,0,0,0,1.59.09,14,14,0,0,0,1.6-.09V185.1c.42-.06.84-.13,1.24-.22l0,.08.55,1.5.76-.2a15.14,15.14,0,0,0,2.24-.89l-.57-1.58c.37-.2.73-.41,1.09-.64l.36.43.72.86a14.56,14.56,0,0,0,2.45-2.05L211,181.1a10.67,10.67,0,0,0,.81-1l1.46.84a14.29,14.29,0,0,0,1.6-2.76l-1.46-.84a12.08,12.08,0,0,0,.44-1.19l1.65.29a13.58,13.58,0,0,0,.55-3.14l-1.65-.3c0-.2,0-.41,0-.63s0-.42,0-.63l1.65-.29A13.76,13.76,0,0,0,215.54,168.33ZM207.9,163a11.66,11.66,0,0,1,1.06.79,11.08,11.08,0,0,1,2.13,2.4L209,167.4l-3.12,1.8-1.31.75-.25.15c-.1-.11-.2-.21-.31-.31l.56-1,1.31-2.27Zm-5.55-1.86a11.14,11.14,0,0,1,2.18.35,11.8,11.8,0,0,1,1.31.43q.45.18.87.39l-.87,1.51-1.31,2.26-1.75,3a3,3,0,0,0-.43-.11Zm-4.86.78a11.39,11.39,0,0,1,3.48-.78V169a3.25,3.25,0,0,0-.42.11l-1.75-3-1.31-2.26-.87-1.51Q197,162.08,197.49,161.9Zm-3.12,1.87a13.09,13.09,0,0,1,1-.79l2.07,3.57,1.31,2.27.56,1c-.11.1-.21.2-.31.31l-.25-.15-1.31-.75-3.12-1.8-2.13-1.23A11.08,11.08,0,0,1,194.37,163.77Zm-2.82,3.59,2.82,1.63,3.12,1.8.87.5a2.09,2.09,0,0,0-.11.43h-7.87A11,11,0,0,1,191.55,167.36Zm-1.17,5.73h7.87a2.09,2.09,0,0,0,.11.43l-.87.5-3.12,1.8-2.82,1.63A11,11,0,0,1,190.38,173.09Zm5,8.74a11.34,11.34,0,0,1-3.18-3.19l2.13-1.23,3.12-1.8,1.31-.75.25-.15.31.31-.56,1-1.31,2.27Zm5.55,1.86a12,12,0,0,1-2.17-.35,11.15,11.15,0,0,1-1.31-.43q-.45-.18-.87-.39l.87-1.51,1.31-2.26,1.75-3a3.25,3.25,0,0,0,.42.11Zm-1.61-11.29a2.3,2.3,0,1,1,2.3,2.3A2.29,2.29,0,0,1,199.36,172.4Zm6.48,10.51a11.8,11.8,0,0,1-1.31.43,12,12,0,0,1-2.18.35v-7.87a3,3,0,0,0,.43-.11l1.75,3,1.31,2.26.87,1.51Q206.29,182.73,205.84,182.91ZM209,181a11.66,11.66,0,0,1-1.06.79l-2.06-3.57L204.53,176l-.56-1,.31-.31.25.15,1.31.75,3.12,1.8,2.13,1.23A11.08,11.08,0,0,1,209,181Zm2.82-3.59L209,175.82l-3.12-1.8-.87-.5c0-.14.08-.28.11-.43H213A11.37,11.37,0,0,1,211.78,177.45ZM209,171.72h-3.88c0-.15-.07-.29-.11-.43l.87-.5L209,169l2.82-1.63a11.37,11.37,0,0,1,1.17,4.36Z"/><path class="cls-9" d="M268.24,167.56a15.64,15.64,0,0,0-.56-2.09l2.9-1.67a16.37,16.37,0,0,0-1.12-2.31,16.78,16.78,0,0,0-1.44-2.12l-2.9,1.67a13.82,13.82,0,0,0-1.53-1.53l1.67-2.9a17,17,0,0,0-4.42-2.55l-1.68,2.9a13.11,13.11,0,0,0-2.09-.56v-3.35a17.27,17.27,0,0,0-5.11,0v3.35a13.11,13.11,0,0,0-2.09.56l-1.68-2.9a18,18,0,0,0-2.3,1.11,18.77,18.77,0,0,0-2.12,1.44l1.68,2.9a14.73,14.73,0,0,0-1.53,1.53L241,159.37a16.78,16.78,0,0,0-1.44,2.12,17.47,17.47,0,0,0-1.11,2.31l2.9,1.67a13.11,13.11,0,0,0-.56,2.09h-3.35a17.27,17.27,0,0,0,0,5.11h3.35a13.11,13.11,0,0,0,.56,2.09l-2.9,1.68a18,18,0,0,0,1.11,2.3,16.78,16.78,0,0,0,1.44,2.12l2.91-1.67a13.82,13.82,0,0,0,1.53,1.53l-1.68,2.9a17.53,17.53,0,0,0,2.12,1.44,18,18,0,0,0,2.3,1.12l1.68-2.91a13.11,13.11,0,0,0,2.09.56v3.35a17.27,17.27,0,0,0,5.11,0v-3.35a13.11,13.11,0,0,0,2.09-.56l1.68,2.91a18.84,18.84,0,0,0,2.31-1.12,17.41,17.41,0,0,0,2.11-1.44l-1.67-2.9a13.82,13.82,0,0,0,1.53-1.53l2.9,1.67a17.86,17.86,0,0,0,2.56-4.42l-2.9-1.68a15.64,15.64,0,0,0,.56-2.09h3.34a17.27,17.27,0,0,0,0-5.11ZM264.39,170v.54c0,.08,0,.16,0,.24v0h0v0c0,.06,0,.13,0,.2h0a10.1,10.1,0,0,1-.28,1.57h0a9.83,9.83,0,0,1-1,2.38,8.25,8.25,0,0,1-.49.76l0,0,0,0h0a9.76,9.76,0,0,1-2.37,2.34h0l-.12.08-.09.05,0,0,0,0-.43.26a10.18,10.18,0,0,1-1.85.83h-.11l-.08,0-.12,0h-.07l-.14,0H257l-.11,0h-.08l-.18,0h-.09l-.12,0h0l-.1,0h-.08l-.17,0H256l-.16,0h-.07l-.19,0h0l-.21,0h0l-.22,0h-2l-.12,0h0c-.31-.06-.62-.12-.93-.21h0a9.73,9.73,0,0,1-2.38-1l-.73-.46,0,0,0,0h0l0,0,0,0h0a9.79,9.79,0,0,1-2.22-2.23l-.06-.09h0l0,0,0,0,0,0c-.14-.2-.27-.41-.4-.63a10.07,10.07,0,0,1-1-2.34v0h0v0h0v0h0v-.07h0v0h0v-.12h0v-.07h0v-.08h0v0h0v-.08h0v-.15h0v0h0v-.15h0v0h0v-.08h0v0h0v-.08h0v-.16h0v-.24h0v-.16h0v-.08h0v-.53h0v-.62h0v0c0-.08,0-.16,0-.24h0v0h0v0h0c0-.06,0-.13,0-.2a9.06,9.06,0,0,1,.29-1.57h0a10,10,0,0,1,1-2.38c.15-.25.3-.49.47-.73l0,0,0,0,0,0h0a9.94,9.94,0,0,1,2.37-2.34h0l.12-.08.08,0,0,0,0,0,.42-.26a9.76,9.76,0,0,1,1.85-.82l0,0h.08l.08,0,.12,0h.07l.14,0H252l.11,0h.08l.18,0h.09l.12,0h0l.11,0h.08l.16,0h.09l.16,0h.07l.19,0h0l.22,0H256l.12,0h0c.31.06.63.12.93.21a9.42,9.42,0,0,1,2.38,1l.56.35,0,0,0,0,0,0,0,0h0l0,0,0,0,0,0h0a10,10,0,0,1,2.29,2.3l.06.08h0l0,0,0,0,0,0c.14.2.27.41.4.63a10.11,10.11,0,0,1,1,2.34v0h0v.19h0v.08h0v0h0v0h0v0h0v.15h0v0l0,.08h0v0h0v.15h0v0h0v.35h0v0h0v.53h0v0h0v0h0v.08h0v0h0V170Z"/><path class="cls-6" d="M280.19,138.72c0-.15,0-.3,0-.45l1.18-.21a10.29,10.29,0,0,0-.39-2.24l-1.18.21c-.09-.29-.2-.57-.31-.85l1-.6a10.42,10.42,0,0,0-1.14-2l-1,.6c-.18-.24-.38-.47-.58-.69l.77-.92a10.13,10.13,0,0,0-1.74-1.46l-.52.61-.25.31a6.06,6.06,0,0,0-.78-.45l.41-1.13a10,10,0,0,0-1.6-.63l-.54-.15-.39,1.08,0,.05a8.72,8.72,0,0,0-.89-.16v-1.2a10.77,10.77,0,0,0-2.27,0v1.2a8.72,8.72,0,0,0-.89.16l0-.05-.39-1.08a5.44,5.44,0,0,0-.54.15,10,10,0,0,0-1.6.63l.41,1.13a5.35,5.35,0,0,0-.77.45l-.26-.31-.52-.61a10.13,10.13,0,0,0-1.74,1.46l.77.92c-.2.22-.4.45-.58.69l-1-.6a10.42,10.42,0,0,0-1.14,2l1,.6c-.11.28-.22.56-.31.85l-1.18-.21a10.29,10.29,0,0,0-.39,2.24l1.18.21c0,.15,0,.3,0,.45s0,.3,0,.45l-1.18.21a10.4,10.4,0,0,0,.39,2.24l1.18-.21c.09.29.2.57.31.84l-1,.6a9.83,9.83,0,0,0,1.14,2l1-.6c.18.24.38.47.58.69l-.77.92a10.66,10.66,0,0,0,1.74,1.47l.52-.62.25-.3q.38.24.78.45L266.5,148a10.08,10.08,0,0,0,1.6.64l.54.14.39-1.07,0,0a8.7,8.7,0,0,0,.89.15V149a9.24,9.24,0,0,0,2.27,0v-1.2c.3,0,.6-.09.89-.15l0,0,.39,1.07.54-.14a11.08,11.08,0,0,0,1.6-.63l-.41-1.13q.4-.21.78-.45l.25.3.52.62a10.66,10.66,0,0,0,1.74-1.47l-.77-.92c.2-.22.4-.45.58-.69l1,.6a9.83,9.83,0,0,0,1.14-2l-1-.6c.11-.27.22-.55.31-.84l1.18.21a10.4,10.4,0,0,0,.39-2.24l-1.18-.21C280.19,139,280.19,138.87,280.19,138.72Zm-1.08-.49h-5.6a2.81,2.81,0,0,0-.08-.31l.62-.35,2.22-1.29,2-1.16A7.76,7.76,0,0,1,279.11,138.23ZM275.52,132a8.12,8.12,0,0,1,.75.56,8,8,0,0,1,1.52,1.71l-1.52.88-2.22,1.28-.93.54-.18.11-.22-.23.4-.69.93-1.62Zm-3.95-1.32a8,8,0,0,1,1.55.24,9.21,9.21,0,0,1,.93.31c.21.08.42.18.62.28l-.62,1.07-.93,1.62-1.25,2.16-.3-.08Zm-3.47.55a9.21,9.21,0,0,1,.93-.31,8,8,0,0,1,1.55-.24v5.6l-.3.08L269,134.2l-.93-1.62-.62-1.07C267.68,131.41,267.89,131.31,268.1,131.23Zm-2.22,1.33a8.12,8.12,0,0,1,.75-.56l1.47,2.55.93,1.61.4.69-.22.22L269,137l-.93-.54-2.22-1.28-1.52-.88A8,8,0,0,1,265.88,132.56Zm-2,2.56,2,1.16,2.22,1.29.62.35a2.81,2.81,0,0,0-.08.31H263A7.89,7.89,0,0,1,263.87,135.12Zm-.83,4.09h5.6c0,.1.05.2.08.3l-.62.36-2.22,1.28-2,1.16A7.72,7.72,0,0,1,263,139.21Zm3.59,6.23q-.39-.27-.75-.57a7.74,7.74,0,0,1-1.52-1.71l1.52-.88L268.1,141l.93-.54.18-.1.22.22-.4.69-.93,1.62Zm3.95,1.32a8.79,8.79,0,0,1-1.55-.25,7.21,7.21,0,0,1-.93-.3l-.62-.28.62-1.08.93-1.61,1.25-2.17a1.67,1.67,0,0,0,.3.08Zm-1.14-8a1.64,1.64,0,1,1,1.64,1.64A1.63,1.63,0,0,1,269.44,138.72Zm4.61,7.48a6,6,0,0,1-.93.31,8.79,8.79,0,0,1-1.55.25v-5.61a1.67,1.67,0,0,0,.3-.08l1.25,2.17.93,1.61.62,1.08C274.47,146,274.26,146.12,274.05,146.2Zm2.22-1.33q-.36.3-.75.57l-1.47-2.55-.93-1.62-.4-.69.22-.22.18.1.93.54,2.22,1.28,1.52.88A7.74,7.74,0,0,1,276.27,144.87Zm2-2.56-2-1.16-2.22-1.28-.62-.36c0-.1.06-.2.08-.3h5.61A7.89,7.89,0,0,1,278.28,142.31Z"/><path class="cls-6" d="M206.89,41.31a8.25,8.25,0,0,0,.3,1.11l-1.54.9a9.1,9.1,0,0,0,.59,1.22,9,9,0,0,0,.77,1.13l1.54-.89a7.84,7.84,0,0,0,.82.81l-.89,1.55a10.06,10.06,0,0,0,1.12.77l.22.11a10.32,10.32,0,0,0,1,.48l.89-1.54a8,8,0,0,0,1.12.29V49a10,10,0,0,0,1.36.1,10.24,10.24,0,0,0,1.36-.1V47.25a7,7,0,0,0,1.11-.3l.89,1.55q.51-.21,1-.48l.21-.11a11.22,11.22,0,0,0,1.13-.77l-.9-1.55a7,7,0,0,0,.82-.81l1.54.89a9,9,0,0,0,.77-1.13,9.1,9.1,0,0,0,.59-1.22l-1.54-.9a7,7,0,0,0,.3-1.11h1.78a9.3,9.3,0,0,0,0-2.72H221.5a7,7,0,0,0-.3-1.11l1.54-.89a8.66,8.66,0,0,0-.59-1.23,9,9,0,0,0-.77-1.13l-1.54.89a7,7,0,0,0-.82-.81l.9-1.55a9.7,9.7,0,0,0-1.13-.76l-.21-.12q-.51-.27-1-.48L216.67,33a7,7,0,0,0-1.11-.3V30.87a8.8,8.8,0,0,0-1.36-.1,8.62,8.62,0,0,0-1.36.1v1.78a6.83,6.83,0,0,0-1.12.3l-.89-1.55a10.32,10.32,0,0,0-1,.48l-.22.12a8.81,8.81,0,0,0-1.12.76l.89,1.55a7.84,7.84,0,0,0-.82.81L207,34.23a9,9,0,0,0-.77,1.13,8.66,8.66,0,0,0-.59,1.23l1.54.89a8.25,8.25,0,0,0-.3,1.11h-1.78a9.3,9.3,0,0,0,0,2.72Zm11.69-3.19A1.83,1.83,0,1,1,216.75,40,1.82,1.82,0,0,1,218.58,38.12Zm-4.38-4.38a1.83,1.83,0,1,1-1.83,1.83A1.83,1.83,0,0,1,214.2,33.74ZM215.42,40a1.23,1.23,0,1,1-1.22-1.22A1.23,1.23,0,0,1,215.42,40ZM214.2,42.5a1.83,1.83,0,1,1-1.83,1.83A1.83,1.83,0,0,1,214.2,42.5Zm-4.38-4.38A1.83,1.83,0,1,1,208,40,1.82,1.82,0,0,1,209.82,38.12Z"/><path class="cls-7" d="M186.07,32a6.61,6.61,0,0,0,.24.9l-1.25.72a9,9,0,0,0,.48,1,8.69,8.69,0,0,0,.62.92l1.26-.73a5.79,5.79,0,0,0,.65.66l-.72,1.25a7,7,0,0,0,.91.62,7,7,0,0,0,1,.48l.72-1.24a6.61,6.61,0,0,0,.9.24v1.44a8,8,0,0,0,1.1.08,7.91,7.91,0,0,0,1.1-.08V36.85a6.61,6.61,0,0,0,.9-.24l.73,1.24a6.92,6.92,0,0,0,1-.48,6.34,6.34,0,0,0,.91-.62l-.72-1.25a5.14,5.14,0,0,0,.66-.66l1.25.73a7.4,7.4,0,0,0,.62-.92,6.45,6.45,0,0,0,.48-1l-1.25-.72a4.59,4.59,0,0,0,.24-.9h1.45a7.67,7.67,0,0,0,0-2.21h-1.45a4.59,4.59,0,0,0-.24-.9l1.25-.72a6.45,6.45,0,0,0-.48-1,7.4,7.4,0,0,0-.62-.92l-1.25.73a5.14,5.14,0,0,0-.66-.66l.72-1.25a6.34,6.34,0,0,0-.91-.62,6.92,6.92,0,0,0-1-.48L194,25.26a6.61,6.61,0,0,0-.9-.24V23.58a7.91,7.91,0,0,0-1.1-.08,8,8,0,0,0-1.1.08V25a6.61,6.61,0,0,0-.9.24L189.26,24a7,7,0,0,0-1,.48,7,7,0,0,0-.91.62l.72,1.25a5.79,5.79,0,0,0-.65.66l-1.26-.73a8.69,8.69,0,0,0-.62.92,9,9,0,0,0-.48,1l1.25.72a6.61,6.61,0,0,0-.24.9h-1.44a7.67,7.67,0,0,0,0,2.21Zm1.66-1h0V31h0v-.1h0v-.09s0-.07,0-.11h0v0s0-.06,0-.09a3.87,3.87,0,0,1,.12-.68h0a4.52,4.52,0,0,1,.43-1,3.45,3.45,0,0,1,.2-.32h0v0h0a4.44,4.44,0,0,1,1-1h0l.05,0,0,0h0l.18-.11a4.37,4.37,0,0,1,.8-.36h.08l.06,0H191l.08,0h.19l.07,0h1.36a2.59,2.59,0,0,1,.4.09,4,4,0,0,1,1,.42l.24.15h.1a4.23,4.23,0,0,1,1,1l0,0h0v0h0v0l.17.27a4.69,4.69,0,0,1,.42,1h0v0h0v0h0v0h0v0h0v0h0v0h0v0h0v0h0v0h0v0h0v0h0v.06h0v.06h0v.06h0v.06h0v.06h0v0h0v0h0v0h0v.1h0V31h0v.22h0v.11a5.1,5.1,0,0,1-.13.68,4.07,4.07,0,0,1-.42,1l-.21.33h0v0h0a4.3,4.3,0,0,1-1,1h0l0,0,0,0h0l-.18.11a4.37,4.37,0,0,1-.8.36h-.08l0,0H193l-.07,0h-1.63l-.4-.08h0a4.3,4.3,0,0,1-1-.42l-.31-.2h-.06a4.42,4.42,0,0,1-1-1l0,0h0v0a2.46,2.46,0,0,1-.17-.27,3.86,3.86,0,0,1-.42-1h0v0h0v0h0v0h0v0h0v0h0v0h0v0h0v0h0v0h0v0h0v0h0v0h0v0h0v0h0v-.06h0v0h0v0h0v0h0v0h0v0h0v0h0v-.06h0v0h0V31Z"/><path class="cls-6" d="M234.54,165.8a6.19,6.19,0,0,0-.19-.77l-2,.35a4.19,4.19,0,0,0-.22-.59l1.78-1a7.77,7.77,0,0,0-.35-.71,7.57,7.57,0,0,0-.44-.66l-1.78,1c-.13-.17-.26-.33-.4-.48l1.32-1.58a7.64,7.64,0,0,0-.58-.55,7,7,0,0,0-.64-.47l-1.32,1.58a5.89,5.89,0,0,0-.54-.32l.7-1.93c-.23-.12-.48-.22-.73-.32a7.25,7.25,0,0,0-.76-.22l-.71,1.93a6,6,0,0,0-.61-.11v-2a5.29,5.29,0,0,0-.8-.05,5.16,5.16,0,0,0-.79.05v2a6.17,6.17,0,0,0-.62.11l-.7-1.93a6.61,6.61,0,0,0-.76.22c-.26.1-.5.2-.74.32l.71,1.93a4.8,4.8,0,0,0-.54.32l-1.32-1.58a5,5,0,0,0-.64.47,7.64,7.64,0,0,0-.58.55l1.32,1.58a4.63,4.63,0,0,0-.4.48l-1.78-1a5.82,5.82,0,0,0-.44.66,7.9,7.9,0,0,0-.36.71l1.78,1a5.89,5.89,0,0,0-.21.59l-2-.35a6.18,6.18,0,0,0-.18.77,5.31,5.31,0,0,0-.09.79l2,.36c0,.1,0,.21,0,.31s0,.21,0,.31l-2,.36a5.31,5.31,0,0,0,.09.79,6.18,6.18,0,0,0,.18.77l2-.35a5.89,5.89,0,0,0,.21.59l-1.78,1a6.91,6.91,0,0,0,.36.72,5.82,5.82,0,0,0,.44.66l1.78-1a4.63,4.63,0,0,0,.4.48l-1.32,1.58a6,6,0,0,0,.58.54,4.28,4.28,0,0,0,.64.48l1.32-1.58a4.8,4.8,0,0,0,.54.32l-.71,1.93a6.07,6.07,0,0,0,.74.31,5.11,5.11,0,0,0,.76.23l.7-1.93a6.17,6.17,0,0,0,.62.11v2.05a5.16,5.16,0,0,0,.79,0,5.29,5.29,0,0,0,.8,0v-2.05a6,6,0,0,0,.61-.11l.71,1.93a5.5,5.5,0,0,0,.76-.23,5.92,5.92,0,0,0,.73-.31l-.7-1.93a5.89,5.89,0,0,0,.54-.32l1.32,1.58a5.62,5.62,0,0,0,.64-.48,6,6,0,0,0,.58-.54l-1.32-1.58c.14-.15.27-.31.4-.48l1.78,1a7.57,7.57,0,0,0,.44-.66,6.82,6.82,0,0,0,.35-.72l-1.78-1a4.19,4.19,0,0,0,.22-.59l2,.35a6.19,6.19,0,0,0,.19-.77,7.08,7.08,0,0,0,.09-.79l-2-.36c0-.1,0-.21,0-.31s0-.21,0-.31l2-.36A7.08,7.08,0,0,0,234.54,165.8Zm-8.29,5.3a3.84,3.84,0,1,1,3.85-3.84A3.84,3.84,0,0,1,226.25,171.1Z"/><path class="cls-6" d="M159.7,62.23a5.94,5.94,0,0,0,1,.16l.35-1.46h.31q.33,0,.66,0l.43,1.44a8.62,8.62,0,0,0,1.12-.25,7.31,7.31,0,0,0,1.08-.41l-.43-1.44a7.58,7.58,0,0,0,.68-.4l.15-.11,1.09,1A7.59,7.59,0,0,0,167,60a7.67,7.67,0,0,0,.73-.89l-1.09-1a7.1,7.1,0,0,0,.46-.86l1.46.35a7.84,7.84,0,0,0,.35-1.1,7.19,7.19,0,0,0,.18-1.13L167.61,55a5.27,5.27,0,0,0,0-1l1.44-.43a7.46,7.46,0,0,0-.24-1.12,9.11,9.11,0,0,0-.41-1.07l-1.44.43a6.36,6.36,0,0,0-.51-.83l1-1.09a7.68,7.68,0,0,0-.77-.85,7.76,7.76,0,0,0-.9-.73l-.88.94-.15.16a5.36,5.36,0,0,0-.85-.46l.35-1.47a7.81,7.81,0,0,0-1.1-.34A7.41,7.41,0,0,0,162,47l-.35,1.46h-.31q-.33,0-.66,0L160.27,47c-.19,0-.37.08-.56.12h0a.51.51,0,0,0-.38.54v1.54c0,.77.41.46.41.46v0a.6.6,0,0,1,.11-.06,1.55,1.55,0,0,1,1.92,1,1.52,1.52,0,0,1-.42,1.56,1.55,1.55,0,0,1-.61.35,1.42,1.42,0,0,1-.89,0h0c-.49-.09-.49.45-.49.45v2.62a1.14,1.14,0,0,1,0,.32v5.41C159.33,62,159.65,62.21,159.7,62.23Zm4.76-10.08a1.61,1.61,0,0,1,.44-.06,1.54,1.54,0,0,1,.44,3,1.39,1.39,0,0,1-.44.07,1.54,1.54,0,0,1-.44-3Zm-.57,5.63a1.54,1.54,0,1,1-2.53-.68,1.57,1.57,0,0,1,.61-.36A1.54,1.54,0,0,1,163.89,57.78Zm-2.82-4.08a1,1,0,0,1,.29-.05,1,1,0,0,1,.3,2,1,1,0,0,1-.3,0,1,1,0,0,1-1-.73A1,1,0,0,1,161.07,53.7Z"/><path class="cls-6" d="M159.69,41.53l1.43-1.71c.21.13.42.26.64.37l-.83,2.28a8.25,8.25,0,0,0,.86.37,7.69,7.69,0,0,0,.9.27l.83-2.28a5.86,5.86,0,0,0,.73.13v2.42a7.14,7.14,0,0,0,.93.06,7.3,7.3,0,0,0,.94-.06V41a5.86,5.86,0,0,0,.73-.13l.83,2.28a7.69,7.69,0,0,0,.9-.27,9.28,9.28,0,0,0,.86-.37l-.83-2.28c.22-.11.43-.24.64-.37l1.56,1.86c.25-.17.51-.36.75-.56a8.39,8.39,0,0,0,.68-.65l-1.56-1.85a6.57,6.57,0,0,0,.48-.57l2.1,1.21a6.17,6.17,0,0,0,.51-.78,6.58,6.58,0,0,0,.42-.84l-2.09-1.21c.09-.23.18-.46.25-.7l2.38.43a6.86,6.86,0,0,0,.22-.92,7.37,7.37,0,0,0,.11-.93l-2.39-.42c0-.12,0-.24,0-.37s0-.25,0-.37l2.39-.42a7.37,7.37,0,0,0-.11-.93,6.71,6.71,0,0,0-.22-.91l-2.38.42c-.07-.24-.16-.47-.25-.7l2.09-1.21a8.22,8.22,0,0,0-.42-.84,8,8,0,0,0-.51-.78L171.16,29a6.44,6.44,0,0,0-.48-.56l1.56-1.86a8.39,8.39,0,0,0-.68-.65,7.56,7.56,0,0,0-.75-.55l-1.56,1.85c-.21-.13-.42-.26-.64-.37l.83-2.27a7.26,7.26,0,0,0-.86-.38,6.1,6.1,0,0,0-.9-.26l-.83,2.27c-.24-.05-.48-.1-.73-.13V23.66a7.3,7.3,0,0,0-.94-.06,7.14,7.14,0,0,0-.93.06v2.42c-.25,0-.49.08-.73.13l-.83-2.27a6.1,6.1,0,0,0-.9.26,6.6,6.6,0,0,0-.86.38l.83,2.27c-.22.11-.43.24-.64.37l-1.56-1.85-.13.09a.48.48,0,0,0-.1.35v1.85a.69.69,0,0,0,.14.48h0l.24.29a3,3,0,0,0-.23.27.84.84,0,0,0-.13.38v8.77a.77.77,0,0,0,.13.5l.23.27-.22.25a.76.76,0,0,0-.14.46v1.82C159.33,41.67,159.69,41.53,159.69,41.53ZM165.18,29a4.53,4.53,0,1,1-4.53,4.53A4.53,4.53,0,0,1,165.18,29Z"/><path class="cls-9" d="M160.28,169.54c.8,0,1.59-.09,2.37-.18v-6c1.51-.19,3-.45,4.46-.78l.1.27,2,5.41c.92-.22,1.83-.47,2.73-.74a52,52,0,0,0,8-3.18l-2.07-5.68c1.34-.7,2.65-1.45,3.91-2.27l1.3,1.54,2.59,3.09a52.07,52.07,0,0,0,8.78-7.37L190.57,149a43.79,43.79,0,0,0,2.91-3.47l5.24,3a51.41,51.41,0,0,0,5.73-9.92l-5.23-3c.58-1.38,1.1-2.8,1.55-4.25l5.95,1a51.42,51.42,0,0,0,2-11.29l-5.95-1c0-.75.06-1.5.06-2.26s0-1.51-.06-2.26l5.95-1a51.21,51.21,0,0,0-2-11.29l-5.95,1c-.45-1.45-1-2.86-1.55-4.25l5.23-3A51.11,51.11,0,0,0,198.72,87l-5.24,3a43.65,43.65,0,0,0-2.91-3.46L194.46,82a52.54,52.54,0,0,0-8.78-7.37l-2.59,3.09-1.29,1.54c-1.27-.81-2.58-1.57-3.92-2.26L180,71.28a51,51,0,0,0-8-3.18c-.9-.27-1.81-.52-2.73-.74l-2,5.41-.1.26c-1.46-.33-3-.59-4.46-.78v-5.1c0-.74-.32-.92-.52-1-.66-.06-1.32-.11-2-.14a.76.76,0,0,0-.81.59v9.8a.94.94,0,0,0,.77.94l0,0a41.12,41.12,0,0,1,7.13,1.17,39.57,39.57,0,0,1,4.69,1.54c1.06.42,2.1.89,3.12,1.4L171.9,86.9,167.21,95l-6.3,10.9a9.9,9.9,0,0,0-1.07-.28c-.5-.07-.51.46-.51.46v3.15c0,.82.49.85.49.85h0a8.16,8.16,0,0,1-.06,15.36s0,0,0,0c-.31.09-.37.24-.38.33v3.67c0,.4.26.45.37.46a12,12,0,0,0,1.21-.33l6.3,10.91,4.69,8.12,3.12,5.42c-1,.5-2.06,1-3.12,1.39a39.57,39.57,0,0,1-4.69,1.54A40.49,40.49,0,0,1,160,158.2h0s-.7,0-.71,1.27v9.22A.86.86,0,0,0,160.28,169.54Zm32.94-33.65L183.09,130l-11.19-6.46-3.13-1.8a11,11,0,0,0,.41-1.52H197.4A40.46,40.46,0,0,1,193.22,135.89Zm4.18-20.57H169.18a11,11,0,0,0-.41-1.52L171.9,112l11.19-6.46,10.12-5.84A40.25,40.25,0,0,1,197.4,115.32Zm-30.19-10.41,4.69-8.13L179.3,84a42.14,42.14,0,0,1,3.79,2.85,40.46,40.46,0,0,1,7.65,8.6l-7.65,4.41-11.19,6.47-4.69,2.7-.91.53a11.63,11.63,0,0,0-1.11-1.11Zm4.69,33.88-4.69-8.13-2-3.49a14.53,14.53,0,0,0,1.11-1.11l.91.52,4.69,2.71,11.19,6.46,7.65,4.42a40.7,40.7,0,0,1-7.65,8.6,40.23,40.23,0,0,1-3.79,2.84Z"/><path class="cls-6" d="M160.51,198.11l2-1.15c.17.17.35.33.53.48a9.36,9.36,0,0,0,1.06.82,12,12,0,0,0,3,1.52l.52.16v3.7a15.83,15.83,0,0,0,6.62,0v-3.7l.51-.16a11.92,11.92,0,0,0,3.05-1.52,10.35,10.35,0,0,0,1.06-.82c.18-.15.36-.31.53-.48l3.21,1.85a16,16,0,0,0,3.32-5.73l-3.22-1.86a12.11,12.11,0,0,0,0-5.94l3.22-1.86a15.81,15.81,0,0,0-1.36-3,16.14,16.14,0,0,0-2-2.69l-3.21,1.85c-.17-.16-.35-.33-.53-.48a12,12,0,0,0-1.06-.82,12.25,12.25,0,0,0-3.05-1.52l-.51-.15v-3.71a15.83,15.83,0,0,0-6.62,0v3.71c-.18,0-.34.1-.52.15a12.36,12.36,0,0,0-3,1.52,10.68,10.68,0,0,0-1.06.82c-.18.15-.36.32-.53.48l-2.36-1.36s-.81-.42-.81,1.43V197.5C159.36,197.92,159.53,198.67,160.51,198.11Zm4.11-5a1.13,1.13,0,0,1-.53.14,1.07,1.07,0,0,1-.93-.54.9.9,0,0,1-.13-.39.66.66,0,0,1,0-.28,1.05,1.05,0,0,1,.52-.79,1.06,1.06,0,0,1,.54-.14,1,1,0,0,1,.92.53A1.08,1.08,0,0,1,164.62,193.15Zm6.34,4.11a1.07,1.07,0,1,1,1.07-1.07A1.07,1.07,0,0,1,171,197.26Zm4.14-1.49a.61.61,0,0,1-.32.08.65.65,0,0,1-.31-1.22.71.71,0,0,1,.31-.08.66.66,0,0,1,.57.34A.64.64,0,0,1,175.1,195.77Zm4.36-7.67a.65.65,0,0,1-.25.89.72.72,0,0,1-.32.08.65.65,0,0,1-.31-1.22.59.59,0,0,1,.31-.09A.66.66,0,0,1,179.46,188.1Zm-2.17-4.74a1.06,1.06,0,0,1,1.47.39,1.12,1.12,0,0,1,.13.39,1.31,1.31,0,0,1,0,.28,1.05,1.05,0,0,1-.52.79,1.06,1.06,0,0,1-.54.14,1.07,1.07,0,0,1-.54-2Zm-.39,8.32a1.08,1.08,0,0,1,.93-.53,1.06,1.06,0,0,1,.54.14,1.05,1.05,0,0,1,.52.79,1.31,1.31,0,0,1,0,.28,1.07,1.07,0,0,1-1.06.93,1.17,1.17,0,0,1-.54-.14A1.09,1.09,0,0,1,176.9,191.68Zm-2.15-10.79h0a.65.65,0,0,1,.86.27.65.65,0,0,1-.26.88.64.64,0,0,1-.6,0,.72.72,0,0,1-.28-.27A.66.66,0,0,1,174.75,180.89ZM171,179.25a1.07,1.07,0,1,1-1.07,1.07A1.06,1.06,0,0,1,171,179.25Zm0,5.34a3.66,3.66,0,1,1-3.66,3.66A3.66,3.66,0,0,1,171,184.59Zm-4.14-3.86a.6.6,0,0,1,.31-.08.67.67,0,0,1,.58.33.66.66,0,0,1-.26.89.72.72,0,0,1-.32.08.65.65,0,0,1-.31-1.22Zm-.28,13.74a.62.62,0,0,1,.59,0,.69.69,0,0,1,.29.27.66.66,0,0,1-.26.89h0a.63.63,0,0,1-.85-.27A.65.65,0,0,1,166.54,194.47ZM163,184.14a1,1,0,0,1,.13-.39,1.07,1.07,0,0,1,.93-.54,1,1,0,0,1,.53.15,1.07,1.07,0,1,1-1.59,1.06A.66.66,0,0,1,163,184.14Zm-.32,3.38a.62.62,0,0,1,.32-.09.66.66,0,0,1,.31,1.23.71.71,0,0,1-.31.08.66.66,0,0,1-.58-.34A.65.65,0,0,1,162.71,187.52Z"/><path class="cls-10" d="M209.33,231.11a24.68,24.68,0,0,0-1-3.64l5-2.92a31.41,31.41,0,0,0-1.94-4,30.39,30.39,0,0,0-2.51-3.7l-5.06,2.92a25.69,25.69,0,0,0-2.66-2.66l2.92-5.06a32,32,0,0,0-3.7-2.51,29.66,29.66,0,0,0-4-1.94l-2.91,5a24.68,24.68,0,0,0-3.64-1v-5.84a31.17,31.17,0,0,0-8.91,0v5.84a24.68,24.68,0,0,0-3.64,1l-2.92-5a30.25,30.25,0,0,0-4,1.94,31.06,31.06,0,0,0-3.69,2.51l2.92,5.06a25.69,25.69,0,0,0-2.66,2.66l-5.06-2.92a30.25,30.25,0,0,0-2.09,3.08,7.8,7.8,0,0,0-.49,2.24v2.18a2.42,2.42,0,0,0,1,1.87h0l2.19,1.26a23.5,23.5,0,0,0-1,3.64h-1.22s-1,.08-1,1.77v5.77a1.29,1.29,0,0,0,1.19,1.37h1a24.68,24.68,0,0,0,1,3.64l-2.26,1.3a3.47,3.47,0,0,0-.92,2.43V249a5.38,5.38,0,0,0,.62,2.35,30.67,30.67,0,0,0,2,2.9l5.06-2.92a25.69,25.69,0,0,0,2.66,2.66l-2.29,4a1.56,1.56,0,0,0,.39,1.79,25.9,25.9,0,0,0,6.69,3.76l2.92-5.05a24.68,24.68,0,0,0,3.64,1v5.84a31.17,31.17,0,0,0,8.91,0v-5.84a24.68,24.68,0,0,0,3.64-1l2.91,5.05a30.9,30.9,0,0,0,4-1.94,32,32,0,0,0,3.7-2.51L201.24,254a25.69,25.69,0,0,0,2.66-2.66l5.06,2.92a30.39,30.39,0,0,0,2.51-3.7,30.78,30.78,0,0,0,1.94-4l-5-2.92a24.68,24.68,0,0,0,1-3.64h5.84a31.17,31.17,0,0,0,0-8.91Zm-6.7,4.53h0v.71l0,.43h0v.14h0l0,.36a16.74,16.74,0,0,1-.5,2.74h0a17,17,0,0,1-1.72,4.14c-.27.46-.55.9-.85,1.33l0,.06,0,0h0a17.07,17.07,0,0,1-4.14,4.08l0,0-.21.14-.14.09-.06,0-.06,0c-.24.16-.49.31-.74.45a17.07,17.07,0,0,1-3.22,1.44l-.06,0-.07,0-.06,0-.14,0-.21.06-.05,0-.07,0-.25.07h0l-.07,0-.2.05-.07,0h-.07l-.31.08h0l-.07,0H189l-.2,0-.07,0-.19,0-.14,0-.29.05-.15,0-.28,0h-.13l-.32,0h-.08l-.37,0h-.07l-.37,0h-.06l-.41,0h-2.51l-.14,0h-.07l-.21,0h-.06l-.21,0h-.07a14.75,14.75,0,0,1-1.63-.35h0a17.28,17.28,0,0,1-4.15-1.72c-.43-.25-.86-.52-1.26-.81l-.06,0,0,0h0l-.06,0,0,0,0,0a17.37,17.37,0,0,1-3.86-3.89l-.1-.14h0l0-.06,0-.06,0-.05c-.24-.36-.47-.72-.68-1.1a17,17,0,0,1-1.7-4.08l0-.06h0l0-.07,0-.07h0v-.06h0l0-.07,0-.07h0v-.06h0l0-.07h0l0-.07h0v-.07h0l0-.06h0v-.07h0l0-.07h0v-.07h0l0-.06h0V239h0v-.07h0l0-.07h0v-.07h0v-.07l0-.06h0v-.06h0v-.07h0v-.07h0v-.07l0-.07h0v-.14h0v-.07h0V238h0v-.13h0v-.14h0v-.14h0v-.14h0v-.07h0v-.21h0v-.07h0v-.14h0v-.14h0v-.07h0v-.07h0v-.79h0v-.36h0v-.71l0-.43v-.14l0-.36a16.74,16.74,0,0,1,.5-2.74h0a17.28,17.28,0,0,1,1.72-4.15c.25-.43.52-.85.8-1.26l0-.06,0-.06,0-.05h0a17.07,17.07,0,0,1,4.14-4.08l0,0,.2-.14.15-.09.06,0,.06,0c.24-.16.48-.31.73-.45a17.36,17.36,0,0,1,3.22-1.44l.07,0,.07,0,.06,0,.14,0,.21-.06.05,0,.07,0L181,219h0l.07,0,.2-.05.07,0h.06l.32-.08h0l.07,0h.07l.2,0,.07,0,.19,0,.13,0,.29,0,.16,0,.28,0h.13l.32,0h.08l.37,0h.07l.37,0h.06l.4,0h2.73l.2,0H188l.21,0h.07c.55.09,1.09.21,1.63.35h0a17,17,0,0,1,4.14,1.72c.34.19.66.39,1,.6l.06,0,.06,0,.05,0,.06,0h0l.05,0,.06,0,0,0h0a17.41,17.41,0,0,1,4,4l.1.14h0l0,.06,0,.05.05.06c.23.36.46.72.68,1.09a17.21,17.21,0,0,1,1.7,4.09l0,.06h0l0,.07,0,.07h0v.06h0l0,.07h0l0,.07h0v.06h0l0,.07h0l0,.07v.06h0l0,.06h0v.07h0v.07l0,.13h0l0,.07,0,.14v.14h0v.06l0,.07h0v.07h0v.07h0v.07h0v.14h0l0,.07v.13h0v.06h0v.41h0v.49h0v.35h0v.07h0v.71h0v.07h0v.14h0v.22Z"/><path class="cls-11" d="M103.25,297.8H206.64c4.12,0,7.46,3.81,7.46,8.54s-3.34,8.53-7.46,8.53H103.25c-4.11,0-7.42-3.84-7.42-8.53S99.14,297.8,103.25,297.8Z"/><path class="cls-11" d="M103.25,321.63H206.64c4.12,0,7.46,3.85,7.46,8.54s-3.34,8.55-7.46,8.55h-11l-11.13,22.65s-5.38,7.3-8.16,8.09-34.57,4.34-44.43,0c0,0-4.81-1.38-8.57-8.66-2.9-5.56-9-16.95-11.76-22.08h-8.29c-4.11,0-7.42-3.83-7.42-8.55S99.14,321.63,103.25,321.63Z"/><path class="cls-11" d="M206.64,274h-2a44.19,44.19,0,0,1-5.24,2.5l-4.77,1.88-5.07.76a44.83,44.83,0,0,1-6.66.49,46.53,46.53,0,0,1-5.79-.39,58.36,58.36,0,0,1-10.85-2.81c-.94-.37-1.87-.79-2.79-1.24a1.32,1.32,0,0,1-.38-.18,6.56,6.56,0,0,0-3-1h-5.71a6,6,0,0,0-2.8.81v0a43.43,43.43,0,0,1-20,5,43,43,0,0,1-17.76-3.89,2,2,0,0,1-.43-.17c-.22-.12-.44-.22-.66-.32l-.21-.1a18.51,18.51,0,0,0-4.32-1.29h-4.93c-4.11,0-7.42,3.83-7.42,8.54s3.31,8.53,7.42,8.53H206.64c4.12,0,7.46-3.8,7.46-8.53S210.76,274,206.64,274Z"/></g></svg>